<svg xmlns="http://www.w3.org/2000/svg" viewBox="0 0 237.14 180.69"><defs><style>.cls-1{fill:#fff;}</style></defs><g id="Layer_2" data-name="Layer 2"><g id="Layer_1-2" data-name="Layer 1"><path class="cls-1" d="M44.78,98.05c-7.44,0-13.7-2.32-17.53-6.66l.29-.26C32.63,96.89,42.13,99,53,96.78,68.33,93.62,89.36,80.56,98,54.18,110.87,15,134.23,3.53,151.57.77c14.7-2.33,30.82.64,46.63,8.59a111.17,111.17,0,0,1,38.94,33.13l-.32.23a110.75,110.75,0,0,0-38.8-33c-15.73-7.91-31.77-10.87-46.39-8.55C134.41,3.9,111.19,15.34,98.4,54.31,89.69,80.85,68.51,94,53,97.17A41,41,0,0,1,44.78,98.05Z"/><path class="cls-1" d="M45.84,98.63c-7.93,0-14.59-2.52-18.6-7.24l.31-.26c5.22,6.15,15.08,8.5,26.37,6.28a57.26,57.26,0,0,0,26-13.12A66.55,66.55,0,0,0,99.17,54.72h0C112,15.59,135.22,4.08,152.48,1.33,167-1,183,1.92,198.62,9.76a109.83,109.83,0,0,1,38.52,32.73l-.32.23a109.39,109.39,0,0,0-38.38-32.6C182.89,2.31,167-.59,152.55,1.72c-17.16,2.74-40.28,14.18-53,53.13h0A66.87,66.87,0,0,1,80.17,84.59,57.69,57.69,0,0,1,54,97.81,42.65,42.65,0,0,1,45.84,98.63Z"/><path class="cls-1" d="M46.91,99.24c-8.43,0-15.49-2.75-19.67-7.86l.31-.25c5.36,6.55,15.58,9.15,27.33,6.94,16.22-3,36.68-15.9,45.45-42.82h0C113,16.14,136.2,4.64,153.4,1.88c14.4-2.32,30.18.55,45.64,8.28a108.29,108.29,0,0,1,38.1,32.33l-.32.23a108,108,0,0,0-38-32.2C183.48,2.82,167.78,0,153.46,2.27,136.38,5,113.36,16.46,100.71,55.39h0C91.88,82.47,71.29,95.4,55,98.46A43,43,0,0,1,46.91,99.24Z"/><path class="cls-1" d="M48.19,99.85c-9,0-16.64-3-20.95-8.47l.31-.25C33,98,43.81,100.91,55.83,98.75c16.28-2.92,36.83-15.74,45.65-43h0C114.13,16.7,137.19,5.2,154.31,2.43c14.26-2.31,29.87.5,45.15,8.13a107,107,0,0,1,37.68,31.93l-.32.23a106.6,106.6,0,0,0-37.54-31.8c-15.2-7.59-30.73-10.39-44.91-8.1-17,2.75-39.93,14.2-52.51,53.11h0C93,83.31,72.29,96.2,55.9,99.15A44,44,0,0,1,48.19,99.85Z"/><path class="cls-1" d="M49.29,100.51c-9.48,0-17.57-3.26-22-9.13l.31-.24c5.55,7.26,16.75,10.45,29.23,8.31,16.34-2.8,37-15.6,45.86-43.13h0C115.21,17.26,138.17,5.75,155.22,3c14.11-2.3,29.55.46,44.66,8a105.5,105.5,0,0,1,37.26,31.53l-.32.23a105.27,105.27,0,0,0-37.12-31.4c-15-7.49-30.39-10.23-44.41-7.95C138.34,6.13,115.52,17.58,103,56.47h0C94.06,84.15,73.29,97,56.85,99.85A45.2,45.2,0,0,1,49.29,100.51Z"/><path class="cls-1" d="M50.38,101.19c-10,0-18.49-3.51-23.15-9.81l.33-.24c5.67,7.69,17.23,11.15,30.16,9a54,54,0,0,0,26.4-12.61c9-7.75,15.61-18.09,19.68-30.71h0c12.5-39,35.36-50.56,52.33-53.34,14-2.28,29.24.42,44.16,7.84a104.19,104.19,0,0,1,36.85,31.13l-.32.23a103.94,103.94,0,0,0-36.7-31c-14.86-7.37-30-10.07-43.92-7.79-16.87,2.76-39.59,14.21-52,53.09h0c-4.09,12.68-10.75,23.07-19.79,30.86a54.41,54.41,0,0,1-26.59,12.7A45.27,45.27,0,0,1,50.38,101.19Z"/><path class="cls-1" d="M51.7,101.87c-10.51,0-19.7-3.83-24.47-10.5l.33-.23c5.71,8,17.92,11.83,31.1,9.78a53.46,53.46,0,0,0,26.5-12.51c9-7.77,15.68-18.2,19.79-31h0c12.43-39,35.19-50.54,52.09-53.33,13.82-2.28,28.92.38,43.67,7.68a103,103,0,0,1,36.43,30.74l-.32.23a102.55,102.55,0,0,0-36.29-30.61c-14.67-7.27-29.69-9.91-43.42-7.65-16.8,2.77-39.42,14.23-51.79,53.09h0c-4.14,12.87-10.83,23.35-19.9,31.16a53.74,53.74,0,0,1-26.7,12.6A47.06,47.06,0,0,1,51.7,101.87Z"/><path class="cls-1" d="M52.8,102.59c-11,0-20.65-4.11-25.57-11.22l.33-.23c5.83,8.43,18.4,12.57,32,10.54C81,98.49,98.36,82.14,106.11,57.93h0c12.36-39,35-50.52,51.85-53.32,13.66-2.26,28.59.34,43.17,7.54a101.45,101.45,0,0,1,36,30.34l-.32.23A101.1,101.1,0,0,0,201,12.51C186.45,5.35,171.61,2.75,158,5c-16.73,2.77-39.25,14.24-51.54,53.08h0c-7.8,24.33-25.3,40.77-46.83,44A45.9,45.9,0,0,1,52.8,102.59Z"/><path class="cls-1" d="M53.9,103.32c-11.53,0-21.59-4.38-26.67-11.95l.33-.22c5.95,8.86,18.88,13.3,32.94,11.3,21.46-3,38.94-19.49,46.76-44h0c12.29-39,34.85-50.51,51.61-53.31,13.52-2.26,28.28.29,42.68,7.39a100.1,100.1,0,0,1,35.59,29.94l-.32.23A100,100,0,0,0,201.37,12.9c-14.33-7-29-9.59-42.44-7.35-16.65,2.78-39.07,14.25-51.3,53.08h0c-7.87,24.62-25.47,41.15-47.07,44.22A47.33,47.33,0,0,1,53.9,103.32Z"/><path class="cls-1" d="M55,104.08c-12,0-22.54-4.68-27.77-12.71l.33-.22c6.07,9.31,19.36,14.06,33.86,12.09A52.07,52.07,0,0,0,88.28,91c9.1-7.82,15.88-18.57,20.14-32h0c12.22-39,34.67-50.5,51.36-53.3,13.37-2.25,28,.26,42.18,7.24a98.72,98.72,0,0,1,35.18,29.55l-.32.23a98.36,98.36,0,0,0-35-29.42c-14.15-7-28.66-9.44-41.95-7.21-16.58,2.79-38.9,14.26-51.06,53.08h0C104.5,72.61,97.69,83.4,88.54,91.26a52.36,52.36,0,0,1-27.07,12.38A47.64,47.64,0,0,1,55,104.08Z"/><path class="cls-1" d="M56.32,104.84c-12.53,0-23.78-5.07-29.09-13.48l.33-.21c6.09,9.61,20.05,14.8,34.76,12.9a51.69,51.69,0,0,0,27-12.23c9.13-7.84,16-18.71,20.26-32.28h0c12.15-39,34.5-50.49,51.12-53.3,13.22-2.24,27.64.22,41.69,7.1a97.47,97.47,0,0,1,34.76,29.15l-.32.23a97.18,97.18,0,0,0-34.62-29c-14-6.84-28.31-9.28-41.45-7.06C144.24,9.43,122,20.9,109.94,59.71h0C105.6,73.34,98.75,84.24,89.57,92.12a52,52,0,0,1-27.2,12.33A47.86,47.86,0,0,1,56.32,104.84Z"/><path class="cls-1" d="M57.4,105.63c-13,0-24.71-5.39-30.18-14.27l.35-.21c6.18,10.07,20.51,15.58,35.64,13.72A51.19,51.19,0,0,0,90.33,92.69c9.18-7.88,16-18.85,20.4-32.62h0c5-16,12.19-28.82,21.42-37.94A54.29,54.29,0,0,1,161.6,6.78c13.07-2.23,27.32.18,41.2,7a96.06,96.06,0,0,1,34.34,28.76l-.32.23a95.73,95.73,0,0,0-34.2-28.63c-13.8-6.74-28-9.13-41-6.92C145.22,10,123.1,21.46,111.09,60.25h0C106.71,74.06,99.81,85.08,90.59,93a51.6,51.6,0,0,1-27.33,12.28A48.5,48.5,0,0,1,57.4,105.63Z"/><path class="cls-1" d="M58.48,106.43c-13.52,0-25.66-5.71-31.26-15.07l.35-.21c6.29,10.53,21,16.38,36.53,14.55,10.47-1.22,36.09-8.07,47.78-45.09h0c5-16,12.13-28.81,21.32-37.94A54,54,0,0,1,162.51,7.32C188.27,2.9,218.26,17,237.14,42.49l-.32.23c-18.79-25.33-48.63-39.4-74.25-35C146.21,10.52,124.19,22,112.24,60.79h0c-4.43,14-11.37,25.13-20.62,33.08A51.31,51.31,0,0,1,64.15,106.1,49.52,49.52,0,0,1,58.48,106.43Z"/><path class="cls-1" d="M59.77,107.24c-14,0-26.89-6.15-32.55-15.88l.35-.2C33.86,102,49.24,108.3,65,106.55c10.52-1.17,36.25-7.94,48.06-45.41h0c4.92-16,12.06-28.8,21.21-37.93A53.76,53.76,0,0,1,163.42,7.85c25.45-4.39,55.07,9.53,73.72,34.64l-.32.23c-18.56-25-48-38.84-73.34-34.47A53.28,53.28,0,0,0,134.53,23.5c-9.12,9.09-16.23,21.82-21.13,37.83h0C101.51,99,75.61,105.77,65,107A49.08,49.08,0,0,1,59.77,107.24Z"/><path class="cls-1" d="M60.83,108.07c-14.45,0-27.82-6.49-33.61-16.71l.35-.2c6.39,11.27,22.13,18,38.29,16.25,10.56-1.12,36.41-7.81,48.33-45.73h0c4.89-16,12-28.8,21.11-37.93a53.38,53.38,0,0,1,29-15.36c25.14-4.37,54.41,9.33,72.82,34.1l-.32.23C218.49,18.08,189.38,4.44,164.39,8.78A53,53,0,0,0,135.58,24c-9.08,9.09-16.16,21.82-21,37.83h0c-12,38.08-38,44.81-48.65,45.93A48.12,48.12,0,0,1,60.83,108.07Z"/><path class="cls-1" d="M61.88,108.92c-14.93,0-28.75-6.85-34.66-17.57l.35-.19c6.48,11.74,22.57,18.78,39.15,17.11,22.43-2.25,40.15-19,48.63-46.06h0c4.86-16,11.92-28.79,21-37.92A53,53,0,0,1,165.23,8.92c24.83-4.34,53.73,9.15,71.91,33.57l-.32.23C218.73,18.42,190,5,165.3,9.32a52.65,52.65,0,0,0-28.67,15.25c-9,9.1-16.08,21.83-20.93,37.84h0c-8.53,27.14-26.37,44-48.94,46.26A47.05,47.05,0,0,1,61.88,108.92Z"/><path class="cls-1" d="M62.93,109.77c-15.42,0-29.68-7.2-35.71-18.42l.35-.19c6.57,12.22,23,19.61,40,18,22.53-2.14,40.36-19.06,48.92-46.4h0c4.83-16,11.86-28.79,20.9-37.92A52.72,52.72,0,0,1,166.14,9.45c24.51-4.31,53.05,9,71,33l-.32.23C219,18.77,190.58,5.56,166.21,9.85a52.28,52.28,0,0,0-28.53,15.26c-9,9.1-16,21.84-20.82,37.84h0c-8.62,27.46-26.57,44.44-49.24,46.6C66.05,109.7,64.48,109.77,62.93,109.77Z"/><path class="cls-1" d="M64.16,110.63c-15.79,0-30.87-7.71-36.94-19.28l.35-.19C34.12,103.65,51.3,111.59,68.43,110,91.07,108,109,91,117.66,63.28h0c4.8-16,11.79-28.78,20.78-37.91A52.45,52.45,0,0,1,167.05,10c24.2-4.29,52.37,8.77,70.09,32.51l-.32.23c-17.63-23.61-45.65-36.61-69.7-32.34a52,52,0,0,0-28.39,15.27c-9,9.1-15.93,21.84-20.72,37.84h0c-8.7,27.78-26.76,44.89-49.54,46.95C67,110.57,65.59,110.63,64.16,110.63Z"/><path class="cls-1" d="M65.18,111.51c-16.25,0-31.78-8.09-38-20.16l.35-.18c6.63,13,24.18,21.27,41.71,19.77a49.5,49.5,0,0,0,28.16-12c9.47-8.17,16.66-20,21.37-35.08h0c4.77-16,11.73-28.78,20.68-37.92A52.14,52.14,0,0,1,168,10.51c23.9-4.26,51.7,8.59,69.19,32l-.32.23c-17.4-23.27-45-36-68.8-31.81a51.68,51.68,0,0,0-28.24,15.27C130.85,35.29,123.92,48,119.17,64h0c-4.73,15.14-12,27-21.46,35.17a49.81,49.81,0,0,1-28.39,12.14C67.93,111.45,66.55,111.51,65.18,111.51Z"/><path class="cls-1" d="M66.2,112.4c-16.72,0-32.7-8.47-39-21.05l.35-.18c6.71,13.43,24.61,22.13,42.55,20.67a49.22,49.22,0,0,0,28.32-12C108,91.58,115.2,79.66,120,64.37c4.75-16,11.67-28.79,20.58-37.93A51.82,51.82,0,0,1,168.86,11c23.58-4.24,51,8.4,68.28,31.44l-.32.24c-17.17-22.92-44.45-35.5-67.89-31.29a51.49,51.49,0,0,0-28.11,15.29c-8.86,9.09-15.75,21.79-20.47,37.75h0l0,.11h0C115.53,79.9,108.26,91.85,98.7,100.1a49.61,49.61,0,0,1-28.55,12.14C68.83,112.35,67.51,112.4,66.2,112.4Z"/><path class="cls-1" d="M67.2,113.3c-17.18,0-33.59-8.86-40-22l.35-.18c6.79,13.91,25,23,43.38,21.59a49.11,49.11,0,0,0,28.49-12.05c9.58-8.28,16.87-20.33,21.68-35.82h0c4.72-16,11.6-28.78,20.46-37.92a51.54,51.54,0,0,1,28.18-15.4c23.27-4.21,50.35,8.21,67.38,30.91l-.32.24C219.88,20.14,193,7.77,169.83,12a51.1,51.1,0,0,0-28,15.29c-8.84,9.12-15.7,21.86-20.4,37.87h0C116.64,80.63,109.31,92.7,99.7,101A49.46,49.46,0,0,1,71,113.15Q69.09,113.3,67.2,113.3Z"/><path class="cls-1" d="M53,134.3c-14.41,0-27.92-6.67-38.87-19.42l.3-.26c13.61,15.84,31.19,22.23,49.5,18,26.26-6,49.13-32.38,58.29-67.09h0l0-.11c4.68-16,11.53-28.77,20.35-37.92a51.22,51.22,0,0,1,28-15.41c23-4.18,49.67,8,66.47,30.39l-.32.24c-16.71-22.24-43.26-34.39-66.08-30.24a50.8,50.8,0,0,0-27.82,15.3c-8.78,9.1-15.59,21.8-20.26,37.75-9.17,34.91-32.17,61.4-58.61,67.49A48.77,48.77,0,0,1,53,134.3Z"/><path class="cls-1" d="M54,134.84c-14.82,0-28.66-6.86-39.8-20l.3-.26c13.83,16.25,31.82,22.83,50.66,18.53,12.61-2.87,24.67-10.43,34.88-21.86,10.66-11.94,18.75-27.56,23.4-45.2h0l0-.15c4.65-16,11.46-28.76,20.24-37.91a50.94,50.94,0,0,1,27.89-15.42c11.44-2.1,23.82-.23,35.79,5.41a80.33,80.33,0,0,1,29.78,24.46l-.32.24C220.34,20.82,194.15,8.88,171.64,13A50.47,50.47,0,0,0,144,28.31c-8.74,9.11-15.52,21.81-20.15,37.77-4.67,17.74-12.8,33.47-23.52,45.47-10.27,11.5-22.4,19.1-35.09,22A50.28,50.28,0,0,1,54,134.84Z"/><path class="cls-1" d="M55,135.38a48.38,48.38,0,0,1-16.11-2.76c-9.25-3.24-17.59-9.22-24.77-17.74l.3-.26C28.52,131.3,46.93,138.07,66.3,133.7c26.62-6,48.93-31.7,58.25-67.07h0l0-.15c4.62-16,11.39-28.76,20.12-37.91,7.92-8.3,17.25-13.49,27.75-15.43,11.29-2.08,23.5-.26,35.3,5.27a79.18,79.18,0,0,1,29.37,24.08l-.32.24a78.84,78.84,0,0,0-29.22-24c-11.72-5.5-23.85-7.31-35.06-5.23-10.41,1.92-19.67,7.07-27.53,15.3-8.69,9.12-15.43,21.83-20,37.78-9.34,35.58-31.79,61.44-58.58,67.48A51.53,51.53,0,0,1,55,135.38Z"/><path class="cls-1" d="M56.22,135.94c-15.72,0-30.62-7.34-42.07-21.06l.31-.26c14.08,16.87,33.41,24,53,19.66,12.61-2.81,24.57-10.17,34.6-21.29,10.67-11.82,18.83-27.66,23.62-45.82h0l0-.18h0c4.6-16,11.33-28.75,20-37.9,7.87-8.3,17.16-13.49,27.6-15.44,11.15-2.07,23.18-.3,34.81,5.14a77.81,77.81,0,0,1,29,23.69l-.32.25A77.4,77.4,0,0,0,208,19.15c-11.55-5.4-23.5-7.16-34.56-5.11-10.36,1.93-19.58,7.09-27.39,15.32-8.65,9.12-15.36,21.84-19.94,37.79-4.79,18.27-13,34.21-23.73,46.11-10.09,11.18-22.13,18.58-34.82,21.41A52,52,0,0,1,56.22,135.94Z"/><path class="cls-1" d="M57.23,136.55c-16.16,0-31.42-7.56-43.08-21.67l.31-.26c14.31,17.32,34.07,24.71,54.22,20.27,12.61-2.78,24.53-10.06,34.47-21,10.66-11.77,18.86-27.72,23.71-46.13h0l0-.2h0c4.56-16,11.26-28.74,19.9-37.9,7.84-8.3,17.08-13.49,27.47-15.44,11-2.06,22.86-.33,34.31,5a76.66,76.66,0,0,1,28.55,23.31l-.32.25a76.08,76.08,0,0,0-28.4-23.2c-11.38-5.29-23.16-7-34.07-5-10.31,1.93-19.47,7.09-27.24,15.33C138.5,39,131.83,51.72,127.28,67.67c-4.86,18.53-13.1,34.59-23.83,46.44-10,11-22,18.37-34.68,21.17A53.74,53.74,0,0,1,57.23,136.55Z"/><path class="cls-1" d="M58.46,137.16a53.17,53.17,0,0,1-18.29-3.24,60.48,60.48,0,0,1-26-19l.31-.26A60,60,0,0,0,40.3,133.54a53,53,0,0,0,29.58,2c26.85-5.86,48.57-31,58.13-67.28h0l.06-.21h0c4.53-16,11.19-28.74,19.79-37.9,7.79-8.31,17-13.51,27.32-15.46,10.84-2,22.54-.36,33.82,4.87a75.32,75.32,0,0,1,28.14,22.93l-.32.25a74.91,74.91,0,0,0-28-22.82C197.62,14.72,186,13,175.25,15.08,165,17,155.88,22.17,148.15,30.41c-8.57,9.13-15.21,21.86-19.72,37.83C118.85,104.73,97,130,70,135.92A54,54,0,0,1,58.46,137.16Z"/><path class="cls-1" d="M59.65,137.82c-17.09,0-33.51-8.13-45.5-22.95l.31-.25c14.57,18,35.73,26.07,56.61,21.57,12.59-2.71,24.42-9.84,34.22-20.62,10.8-11.89,18.83-27.62,23.88-46.78h0l.07-.23h0c4.5-16,11.12-28.73,19.68-37.9,7.75-8.31,16.89-13.51,27.17-15.46,10.69-2,22.22-.4,33.33,4.73a74.08,74.08,0,0,1,27.73,22.55l-.32.25A73.54,73.54,0,0,0,209.24,20.3c-11-5.1-22.48-6.73-33.09-4.71-10.19,1.94-19.26,7.1-27,15.34-8.53,9.14-15.13,21.87-19.62,37.84-5.05,19.28-13.13,35.11-24,47.07-9.86,10.84-21.77,18-34.43,20.74A54.43,54.43,0,0,1,59.65,137.82Z"/><path class="cls-1" d="M60.72,138.51c-17.54,0-34.36-8.38-46.57-23.64l.31-.25c14.8,18.5,36.4,26.82,57.8,22.27,12.58-2.67,24.37-9.75,34.1-20.45,10.8-11.87,18.85-27.72,24-47.11h0l.06-.24h0c4.47-16,11.05-28.74,19.56-37.91,7.71-8.31,16.8-13.52,27-15.47,10.55-2,21.91-.43,32.85,4.6a72.83,72.83,0,0,1,27.32,22.17l-.32.25a72.3,72.3,0,0,0-27.17-22c-10.86-5-22.14-6.59-32.6-4.58-10.14,1.94-19.16,7.11-26.81,15.35-8.48,9.15-15,21.88-19.5,37.84-5.12,19.52-13.22,35.47-24.08,47.42C96.87,127.48,85,134.59,72.34,137.28A55.5,55.5,0,0,1,60.72,138.51Z"/><path class="cls-1" d="M62,139.2a57.22,57.22,0,0,1-20.69-3.9,64.89,64.89,0,0,1-27.18-20.43l.31-.25a64.52,64.52,0,0,0,27,20.3,56.19,56.19,0,0,0,32,2.7c27.05-5.68,48.19-30.37,58-67.75h0l.07-.26h0c4.45-16,11-28.73,19.45-37.91,7.67-8.31,16.72-13.52,26.88-15.48,10.4-2,21.59-.46,32.36,4.47a71.59,71.59,0,0,1,26.91,21.79l-.32.25a71.18,71.18,0,0,0-26.76-21.68c-10.69-4.89-21.8-6.43-32.11-4.44-10.08,1.94-19,7.11-26.66,15.36-8.45,9.16-15,21.9-19.4,37.89C122,107.46,100.75,132.29,73.52,138A56.48,56.48,0,0,1,62,139.2Z"/><path class="cls-1" d="M63.25,139.93c-18.47,0-36.56-9-49.1-25.06l.32-.24c15,19.21,38.08,28.31,60.13,23.74,12.56-2.6,24.28-9.57,33.91-20.16,10.78-11.86,18.89-27.94,24.12-47.79h0l.08-.28h0c4.41-16,10.92-28.73,19.34-37.91,7.63-8.32,16.62-13.53,26.73-15.5,20.49-4,43.41,6.13,58.37,25.76l-.32.25c-14.87-19.52-37.63-29.57-58-25.62-10,1.95-18.95,7.13-26.52,15.38-8.4,9.16-14.88,21.9-19.28,37.88-5.24,20-13.4,36.17-24.24,48.11-9.69,10.65-21.49,17.67-34.13,20.28A56,56,0,0,1,63.25,139.93Z"/><path class="cls-1" d="M64.35,140.71c-18.92,0-37.42-9.32-50.2-25.84l.32-.24c15.26,19.73,38.74,29.13,61.29,24.52,12.54-2.56,24.24-9.49,33.82-20C120.35,107.24,128.49,91,133.78,71h0l.08-.3h0c4.38-16,10.85-28.73,19.22-37.92,7.59-8.32,16.53-13.53,26.58-15.5,20.19-4,42.75,6,57.48,25.25l-.32.25c-14.64-19.18-37-29-57.08-25.11-10,1.95-18.83,7.13-26.36,15.38-8.36,9.17-14.81,21.92-19.17,37.9-5.3,20.22-13.49,36.53-24.33,48.47-9.64,10.62-21.41,17.6-34,20.18A57.35,57.35,0,0,1,64.35,140.71Z"/><path class="cls-1" d="M65.83,141.46c-19.39,0-38.81-9.75-51.68-26.59l.32-.24c15.25,20,39.76,29.9,62.42,25.34,15.8-3.19,44.32-16.31,58-68.47h0l.09-.32c4.35-16,10.77-28.74,19.11-37.93,7.54-8.33,16.43-13.55,26.43-15.52,19.87-3.92,42.08,5.8,56.58,24.75l-.32.25c-14.41-18.84-36.47-28.5-56.18-24.61-9.91,2-18.73,7.14-26.22,15.4-8.31,9.17-14.72,21.92-19.06,37.9C121.6,123.94,92.88,137.15,77,140.36A56.48,56.48,0,0,1,65.83,141.46Z"/><path class="cls-1" d="M66.94,142.28c-19.83,0-39.69-10.06-52.79-27.41l.32-.24C29.94,135.11,54.88,145.39,78,140.8c15.77-3.13,44.25-16.22,58.08-68.76h0l.09-.34h0c4.31-16,10.7-28.74,19-37.94,7.5-8.33,16.35-13.55,26.28-15.53,19.56-3.89,41.42,5.63,55.69,24.25l-.32.25c-14.18-18.5-35.88-28-55.29-24.11-9.85,2-18.62,7.14-26.06,15.41C147.2,43.21,140.82,56,136.52,72,122.66,124.86,94,138.05,78.08,141.2A57.23,57.23,0,0,1,66.94,142.28Z"/><path class="cls-1" d="M68.18,143.12A63.35,63.35,0,0,1,43,137.75a71.59,71.59,0,0,1-28.86-22.88l.32-.24a71.19,71.19,0,0,0,28.7,22.75,60.85,60.85,0,0,0,35.93,4.29c27.17-5.31,47.81-29.84,58.14-69.09h0l.09-.36c8.14-30.31,24.12-49.31,45-53.49,19.24-3.86,40.75,5.47,54.79,23.75l-.32.25c-13.95-18.17-35.3-27.44-54.4-23.61-20.75,4.16-36.63,23.07-44.72,53.27-10.34,39.58-31.12,64.32-58.52,69.67A57.12,57.12,0,0,1,68.18,143.12Z"/><path class="cls-1" d="M69.54,144c-20.72,0-42-10.89-55.39-29.09l.32-.24c15.66,21.25,42.06,32.47,65.71,27.92,12.71-2.44,24-9.08,33.64-19.75,10.78-12,19.05-28.68,24.57-49.68h0l0-.13.06-.23h0c8.08-30.33,24-49.33,44.75-53.53,18.93-3.81,40.09,5.31,53.9,23.26l-.32.25C223.1,24.9,202.1,15.82,183.32,19.62c-20.65,4.16-36.43,23.09-44.46,53.3C133.32,94.13,125,111,114.11,123.07,104.44,133.8,93.05,140.49,80.26,143A56.66,56.66,0,0,1,69.54,144Z"/><path class="cls-1" d="M70.63,144.85a65.52,65.52,0,0,1-27-6.08,75.59,75.59,0,0,1-29.43-23.9l.32-.24a75.25,75.25,0,0,0,29.28,23.78c12.35,5.61,25.32,7.36,37.49,5.06,12.71-2.41,24-9,33.62-19.72,10.8-12,19.1-28.85,24.69-50.09h0c8-30.56,23.83-49.72,44.59-53.94,18.61-3.79,39.43,5.15,53,22.76l-.32.25c-13.49-17.5-34.14-26.38-52.61-22.62C163.69,24.28,148,43.19,140,73.37h0c-5.6,21.48-14,38.53-24.87,50.65-9.66,10.74-21,17.42-33.85,19.84A57.59,57.59,0,0,1,70.63,144.85Z"/><path class="cls-1" d="M71.85,145.75a66.5,66.5,0,0,1-28-6.46,77.11,77.11,0,0,1-29.7-24.42l.32-.24A76.65,76.65,0,0,0,44,138.92c12.64,5.89,25.87,7.78,38.25,5.48,12.72-2.36,24-9,33.63-19.68,10.81-12,19.15-29,24.8-50.52h0c7.93-30.59,23.67-49.76,44.32-54,18.3-3.76,38.76,5,52.12,22.27l-.32.25C223.56,25.56,203.26,16.88,185.1,20.6c-20.4,4.18-36,23.1-43.91,53.29h0c-5.66,21.72-14.07,38.91-25,51.08-9.66,10.77-21,17.43-33.86,19.82A57.33,57.33,0,0,1,71.85,145.75Z"/><path class="cls-1" d="M73.06,146.67a67.37,67.37,0,0,1-29-6.86,78.5,78.5,0,0,1-29.95-25l.32-.23a78.19,78.19,0,0,0,29.8,24.82c12.94,6.16,26.43,8.21,39,5.91,12.74-2.33,24.06-9,33.65-19.67,10.83-12.1,19.21-29.24,24.92-50.95h0c7.87-30.61,23.52-49.8,44.06-54,18-3.72,38.1,4.83,51.23,21.78l-.32.25c-13-16.83-33-25.33-50.83-21.64-20.29,4.19-35.77,23.12-43.64,53.33h0c-5.73,22-14.18,39.31-25.12,51.54-9.66,10.79-21,17.45-33.87,19.79A57,57,0,0,1,73.06,146.67Z"/><path class="cls-1" d="M74.25,147.62a68.29,68.29,0,0,1-29.92-7.29,80.12,80.12,0,0,1-30.19-25.47l.33-.23a79.58,79.58,0,0,0,30,25.34c13.23,6.46,27,8.66,39.77,6.36,19.19-3.44,44.93-18.57,58.73-71.05h0c7.81-30.63,23.36-49.85,43.78-54.1,17.69-3.68,37.45,4.68,50.35,21.3l-.32.25c-12.8-16.5-32.41-24.81-49.95-21.16-20.16,4.2-35.55,23.14-43.36,53.37h0c-13.82,53-39.8,68.32-59.16,71.79A57.56,57.56,0,0,1,74.25,147.62Z"/><path class="cls-1" d="M75.44,148.58c-25,0-49-15.93-61.3-33.72l.33-.22c13.79,20,42.53,37.66,70.78,32.69,19.2-3.38,45-18.54,58.91-71.51h0c7.75-30.66,23.21-49.89,43.52-54.16,17.37-3.64,36.79,4.53,49.46,20.82l-.31.25C224.24,26.56,205,18.44,187.76,22.06c-20,4.2-35.35,23.16-43.1,53.4h0c-13.95,53.54-40,68.84-59.35,72.25A57,57,0,0,1,75.44,148.58Z"/><path class="cls-1" d="M63.77,166C35.87,166,10.23,149.75,0,136.49l.32-.24c11.88,15.44,44.8,35,77.74,27.87,14.77-3.19,27.76-11.36,38.62-24.29,12.58-15,22.21-36.33,28.63-63.46h0c7.69-30.7,23.05-49.95,43.25-54.22,17.06-3.61,36.13,4.37,48.58,20.33l-.31.25C224.47,26.89,205.56,19,188.64,22.54c-20,4.22-35.17,23.24-42.85,53.58h0c-6.44,27.35-16.12,48.87-28.79,64-10.92,13-24,21.22-38.85,24.43A68.07,68.07,0,0,1,63.77,166Z"/><path class="cls-1" d="M64.49,166.76C36,166.76,10.14,150.05,0,136.49l.32-.24C12.07,152,45.08,172,78.68,164.91c41-8.59,59.51-52.52,67.8-88h0c7.63-30.73,22.89-50,43-54.29,16.76-3.57,35.48,4.23,47.7,19.86l-.31.25C224.7,27.21,206.13,19.47,189.53,23c-19.86,4.24-35,23.29-42.59,53.66h0c-6.39,27.47-16.11,49.08-28.9,64.22-11,13-24.23,21.25-39.28,24.4A69.17,69.17,0,0,1,64.49,166.76Z"/><path class="cls-1" d="M65.39,167.49a85.59,85.59,0,0,1-33.49-7.27C18.51,154.43,6.59,145.56,0,136.49l.32-.24c6.54,9,18.39,17.84,31.72,23.6,11.11,4.79,28.32,9.7,47.24,5.85,41.58-8.46,60.11-52.59,68.33-88.25h0c7.57-30.76,22.74-50.06,42.7-54.35a42.16,42.16,0,0,1,25.57,2.78,54.49,54.49,0,0,1,21.25,16.6l-.31.25C224.92,27.54,206.7,20,190.41,23.49c-19.74,4.24-34.77,23.32-42.33,53.74h0c-6.32,27.6-16.08,49.29-29,64.47C108,154.79,94.62,163,79.38,166.09A69.78,69.78,0,0,1,65.39,167.49Z"/><path class="cls-1" d="M66.21,168.22a86.23,86.23,0,0,1-34.11-7.48c-13.57-5.92-25.56-15-32.08-24.25l.32-.23c6.48,9.2,18.41,18.22,31.92,24.12,11.18,4.88,28.52,9.9,47.66,6.11,42.14-8.34,60.71-52.66,68.87-88.5h0c7.51-30.79,22.58-50.12,42.43-54.42a41.39,41.39,0,0,1,25.09,2.67,53.42,53.42,0,0,1,20.85,16.24l-.31.25a53.1,53.1,0,0,0-20.7-16.13A41,41,0,0,0,191.29,24c-19.63,4.25-34.56,23.36-42.06,53.83h0c-8.15,36-26.78,80.69-69.24,89.09A70.65,70.65,0,0,1,66.21,168.22Z"/><path class="cls-1" d="M67,169a87.06,87.06,0,0,1-34.72-7.68C18.55,155.2,6.48,145.94,0,136.48l.33-.22c6.42,9.39,18.43,18.6,32.11,24.64,11.25,5,28.72,10.1,48.09,6.37,23.59-4.54,54.76-23.62,69.39-88.74h0C157.38,47.7,172.35,28.35,192.08,24c16.07-3.51,33.34,3.55,45.06,18.44l-.31.25C225.2,28,208.08,21,192.16,24.43c-19.51,4.26-34.34,23.41-41.78,53.91h0c-14.65,65.54-46,84.75-69.76,89.32A71.75,71.75,0,0,1,67,169Z"/><path class="cls-1" d="M67.83,169.68a87.84,87.84,0,0,1-35.32-7.88C18.58,155.59,6.44,146.13,0,136.48l.34-.22c6.38,9.58,18.46,19,32.32,25.17,11.32,5,28.93,10.3,48.52,6.63,23.9-4.48,55.4-23.55,69.9-89h0C158.47,48.2,173.34,28.82,193,24.5c15.76-3.47,32.69,3.42,44.19,18l-.31.25C225.42,28.29,208.65,21.46,193,24.9c-19.4,4.27-34.14,23.44-41.51,54h0c-14.52,65.85-46.23,85-70.27,89.55A73.12,73.12,0,0,1,67.83,169.68Z"/><path class="cls-1" d="M68.9,170.38a88.89,88.89,0,0,1-36.19-8C18.62,156,6.39,146.32,0,136.48l.34-.22C6.69,146,18.85,155.64,32.88,162c16.11,7.26,33.5,9.7,49,6.88,24.19-4.42,56-23.49,70.41-89.22h0c7.33-30.91,22.1-50.31,41.6-54.64,15.44-3.43,32,3.28,43.31,17.51l-.31.25C225.65,28.62,209.21,22,193.91,25.36c-19.28,4.28-33.92,23.49-41.23,54.1h0c-14.4,66.15-46.44,85.33-70.77,89.77A72.56,72.56,0,0,1,68.9,170.38Z"/><path class="cls-1" d="M69.72,171.11a89.65,89.65,0,0,1-36.79-8.25C18.65,156.37,6.35,146.51,0,136.48l.34-.22c6.3,10,18.54,19.78,32.74,26.23,16.22,7.38,33.77,9.9,49.41,7.12,24.49-4.35,56.65-23.41,70.9-89.45h0c7.26-30.95,21.93-50.38,41.31-54.72,15.13-3.4,31.39,3.14,42.44,17l-.31.25c-11-13.79-27.06-20.27-42.05-16.91-11.1,2.49-31.18,12.84-40.95,54.2h0c-14.27,66.44-46.63,85.6-71.27,90A73.55,73.55,0,0,1,69.72,171.11Z"/><path class="cls-1" d="M70.55,171.85a90.52,90.52,0,0,1-37.41-8.46C18.7,156.76,6.31,146.7,0,136.48l.34-.21c6.26,10.16,18.58,20.16,33,26.76,16.33,7.49,34,10.1,49.86,7.36,16.25-2.82,30.39-11,42-24.23,13.49-15.36,23.37-37.38,29.34-65.46h0c9.72-41.82,29.88-52.29,41-54.81,14.82-3.35,30.75,3,41.57,16.6l-.31.25C226.1,29.26,210.33,23,195.65,26.27c-11,2.5-31,12.87-40.67,54.3h0c-6,28.24-15.91,50.39-29.48,65.84C113.8,159.75,99.58,168,83.24,170.78A74.77,74.77,0,0,1,70.55,171.85Z"/><path class="cls-1" d="M71.37,172.58a91.18,91.18,0,0,1-38-8.66C18.74,157.16,6.28,146.9,0,136.47l.34-.2C6.58,146.62,19,156.83,33.53,163.56c16.44,7.61,34.31,10.31,50.32,7.6,16.42-2.78,30.7-10.93,42.44-24.23,13.6-15.41,23.5-37.51,29.42-65.69h0c9.64-41.89,29.66-52.38,40.74-54.9C211,23,226.54,29.22,237.14,42.48l-.31.25c-10.5-13.14-26-19.28-40.31-16-11,2.5-30.79,12.89-40.39,54.4h0c-5.93,28.34-15.87,50.57-29.55,66.06-11.8,13.37-26.16,21.57-42.68,24.36A75.17,75.17,0,0,1,71.37,172.58Z"/><path class="cls-1" d="M72.2,173.32a92.17,92.17,0,0,1-38.62-8.86c-2.75-1.29-5.43-2.7-8-4.21,2.37,1.13,5.07,2.39,8.18,3.84,16.56,7.73,34.59,10.51,50.78,7.84,16.59-2.74,31-10.9,42.85-24.24,13.7-15.45,23.62-37.63,29.48-65.91h0c9.54-42,29.44-52.46,40.45-55,14.2-3.27,29.47,2.75,39.84,15.69l-.31.25C226.55,29.91,211.44,24,197.39,27.18c-10.9,2.5-30.6,12.92-40.11,54.51h0c-5.87,28.44-15.83,50.73-29.62,66.27-11.89,13.41-26.39,21.6-43.08,24.36A75.61,75.61,0,0,1,72.2,173.32ZM3.5,141.59A48.37,48.37,0,0,1,0,136.47l.34-.2C1.52,138.26,2.56,140,3.5,141.59Z"/><path class="cls-1" d="M73,174.05A92.78,92.78,0,0,1,33.81,165c-15-7-27.6-17.7-33.8-28.52l.34-.2C6.52,147,19.09,157.62,34,164.63c16.67,7.84,34.86,10.71,51.24,8.07,16.77-2.71,31.32-10.87,43.24-24.25C142.28,133,152.22,110.71,158,82.32h0c9.46-42,29.22-52.55,40.16-55.09,13.89-3.22,28.83,2.62,39,15.25l-.31.25C226.77,30.23,212,24.44,198.25,27.62c-10.83,2.51-30.4,13-39.82,54.63h0c-5.8,28.53-15.78,50.89-29.67,66.47-12,13.45-26.61,21.65-43.48,24.37A76.35,76.35,0,0,1,73,174.05Z"/><path class="cls-1" d="M73.85,174.79A93.77,93.77,0,0,1,34,165.53c-15.36-7.28-27.76-17.88-34-29.06l.34-.2c6.15,10.95,18.8,21.76,33.86,28.9,16.79,8,35.15,10.91,51.71,8.29,16.94-2.67,31.62-10.83,43.64-24.25,13.91-15.55,23.87-37.87,29.6-66.35h0c9.38-42.1,29-52.64,39.87-55.19,13.59-3.17,28.19,2.5,38.12,14.81l-.31.25C227,30.54,212.55,24.92,199.11,28.06c-10.76,2.52-30.19,13-39.53,54.74h0c-5.74,28.61-15.74,51-29.73,66.66C117.78,163,103,171.17,86,173.86A78.47,78.47,0,0,1,73.85,174.79Z"/><path class="cls-1" d="M74.67,175.53a94.54,94.54,0,0,1-40.4-9.46c-15.53-7.42-28-18.21-34.26-29.6l.35-.19c6.2,11.31,18.63,22,34.08,29.43,16.91,8.08,35.44,11.1,52.18,8.52,17.11-2.64,31.93-10.81,44-24.27,14-15.59,24-38,29.67-66.56h0c9.29-42.17,28.78-52.74,39.57-55.29,13.27-3.13,27.55,2.37,37.26,14.37l-.31.25C227.22,30.86,213.09,25.41,200,28.5c-10.69,2.53-30,13-39.24,54.86h0c-5.68,28.71-15.7,51.2-29.78,66.86-12.17,13.54-27.06,21.75-44.27,24.4A78.16,78.16,0,0,1,74.67,175.53Z"/><path class="cls-1" d="M75.5,176.26a95.39,95.39,0,0,1-41-9.65C18.8,159.05,6.23,148.06,0,136.47l.36-.19c6.18,11.52,18.69,22.44,34.32,30,17,8.19,35.72,11.3,52.66,8.74,17.27-2.61,32.22-10.78,44.41-24.29,14.11-15.63,24.11-38.09,29.72-66.76h0c9.2-42.25,28.55-52.84,39.27-55.39,13-3.09,26.92,2.25,36.41,13.93l-.31.25c-9.39-11.56-23.19-16.85-36-13.79-10.61,2.53-29.78,13-38.94,55h0c-5.62,28.79-15.65,51.35-29.83,67.05-12.26,13.58-27.28,21.79-44.65,24.42A80.72,80.72,0,0,1,75.5,176.26Z"/><path class="cls-1" d="M76.32,177a96.13,96.13,0,0,1-41.58-9.85C18.87,159.45,6.21,148.27,0,136.46l.36-.18C6.52,148,19.12,159.13,34.91,166.79c17.16,8.31,36,11.5,53.14,9,17.45-2.58,32.52-10.76,44.8-24.3,14.21-15.68,24.23-38.21,29.77-67h0c9.12-42.33,28.33-52.94,39-55.5,12.67-3.05,26.29,2.13,35.56,13.5l-.31.25c-9.17-11.25-22.64-16.37-35.15-13.36C191.13,31.9,172.1,42.43,163,84.48h0c-5.55,28.87-15.61,51.49-29.88,67.24-12.34,13.61-27.5,21.83-45,24.43A80.5,80.5,0,0,1,76.32,177Z"/><path class="cls-1" d="M77.15,177.74A97.07,97.07,0,0,1,35,167.69c-16-7.83-28.79-19.22-35-31.23l.36-.18c6.14,11.94,18.83,23.25,34.8,31.05,17.27,8.43,36.31,11.69,53.62,9.18,17.61-2.55,32.81-10.73,45.18-24.32,14.3-15.72,24.34-38.32,29.81-67.16h0c9-42.42,28.1-53,38.66-55.61,12.36-3,25.66,2,34.71,13.07l-.31.25c-9-10.94-22.1-15.9-34.3-12.94-10.47,2.54-29.37,13.1-38.36,55.24h0c-5.49,29-15.56,51.64-29.93,67.43-12.43,13.66-27.71,21.88-45.41,24.45A82.07,82.07,0,0,1,77.15,177.74Z"/><path class="cls-1" d="M78,178.48a97.87,97.87,0,0,1-42.76-10.25c-16.22-8-29-19.55-35.22-31.77l.36-.18c6.12,12.15,18.9,23.66,35,31.59,17.4,8.55,36.62,11.89,54.11,9.41,17.78-2.53,33.1-10.72,45.55-24.35,14.41-15.77,24.45-38.43,29.87-67.36h0c8.94-42.52,27.87-53.17,38.36-55.74,12.24-3,24.89,1.73,33.86,12.65l-.31.25C228,31.94,215.46,27.26,203.37,30.22,193,32.76,174.22,43.34,165.32,85.59h0c-5.43,29-15.51,51.78-30,67.61-12.51,13.7-27.92,21.93-45.79,24.47A82.35,82.35,0,0,1,78,178.48Z"/><path class="cls-1" d="M78.81,179.22a98.76,98.76,0,0,1-43.34-10.44C19.08,160.67,6.15,148.89,0,136.46l.36-.18c6.11,12.36,19,24.07,35.29,32.14,17.53,8.66,36.92,12.08,54.6,9.61,17.94-2.5,33.39-10.7,45.92-24.37,14.5-15.81,24.56-38.54,29.91-67.55h0c3.47-16.69,8.85-30.08,16-39.8,6.25-8.49,13.87-14,22-16.06,11.93-2.95,24.27,1.62,33,12.23l-.31.25c-8.64-10.48-20.84-15-32.62-12.09-8.08,2-15.62,7.5-21.81,15.91-7.11,9.67-12.47,23-15.93,39.6h0c-5.36,29.1-15.46,51.91-30,67.78-12.6,13.74-28.13,22-46.16,24.5A84.25,84.25,0,0,1,78.81,179.22Z"/><path class="cls-1" d="M79.63,180a99.48,99.48,0,0,1-43.91-10.63C19.15,161.08,6.13,149.1,0,136.46l.36-.18C6.45,148.85,19.41,160.76,35.9,169c17.65,8.79,37.22,12.28,55.1,9.83a75.37,75.37,0,0,0,46.29-24.4c14.58-15.85,24.66-38.64,29.94-67.74h0c3.43-16.72,8.77-30.14,15.87-39.89,6.2-8.51,13.76-14.08,21.86-16.1,11.62-2.9,23.65,1.52,32.18,11.82l-.31.25c-8.43-10.18-20.3-14.54-31.78-11.68-8,2-15.48,7.51-21.63,15.94-7.06,9.7-12.38,23.06-15.8,39.72h0c-5.3,29.18-15.41,52-30,68a75.79,75.79,0,0,1-46.53,24.52A84.58,84.58,0,0,1,79.63,180Z"/><path class="cls-1" d="M80.46,180.69A100.38,100.38,0,0,1,36,169.87c-16.74-8.38-29.85-20.56-36-33.41l.36-.17c6.08,12.77,19.12,24.88,35.79,33.22,17.79,8.9,37.53,12.47,55.6,10a75.78,75.78,0,0,0,46.65-24.43c14.68-15.89,24.77-38.75,30-67.93,3.39-16.76,8.69-30.22,15.74-40,6.15-8.53,13.64-14.11,21.67-16.13,11.32-2.85,23,1.41,31.35,11.41l-.31.25c-8.21-9.87-19.77-14.08-30.94-11.27-7.94,2-15.35,7.52-21.44,16-7,9.73-12.29,23.14-15.68,39.84-5.22,29.25-15.34,52.17-30.08,68.13A76.2,76.2,0,0,1,91.8,180,85.15,85.15,0,0,1,80.46,180.69Z"/></g></g></svg>