<svg xmlns="http://www.w3.org/2000/svg" viewBox="0 0 145.97 145.97"><defs><style>.cls-1{fill:#281d3d;}</style></defs><g id="Layer_2" data-name="Layer 2"><g id="Layer_1-2" data-name="Layer 1"><path class="cls-1" d="M89.52,146v0A11.13,11.13,0,0,0,78.4,134.81H67.57a11.13,11.13,0,0,0-11.12,11.12l-4,0a15.17,15.17,0,0,1,15.14-15.18H78.4a15.16,15.16,0,0,1,15.14,15.14Z"/><rect class="cls-1" x="70.97" y="87.27" width="4.02" height="26.12"/><path class="cls-1" d="M110.05,139.12a15.15,15.15,0,0,1,0-21.43l7.66-7.66a15.15,15.15,0,0,1,21.41,0l-2.8,2.88,0,0a11.13,11.13,0,0,0-15.74,0l-7.65,7.65a11.13,11.13,0,0,0,0,15.73l0,0Z"/><rect class="cls-1" x="90.31" y="79.26" width="4.02" height="26.12" transform="translate(-38.24 92.32) rotate(-45)"/><path class="cls-1" d="M123.1,84.7A11.72,11.72,0,1,1,134.81,73,11.73,11.73,0,0,1,123.1,84.7Zm0-19.41a7.7,7.7,0,1,0,7.69,7.7A7.7,7.7,0,0,0,123.1,65.29Z"/><path class="cls-1" d="M146,93.54A15.17,15.17,0,0,1,130.79,78.4V67.57a15.16,15.16,0,0,1,15.14-15.14l0,4h0a11.13,11.13,0,0,0-11.12,11.12V78.4a11.13,11.13,0,0,0,11.12,11.12Z"/><rect class="cls-1" x="87.27" y="70.98" width="26.12" height="4.02"/><path class="cls-1" d="M128.4,40.37a15,15,0,0,1-10.71-4.43L110,28.28h0a15.15,15.15,0,0,1,0-21.41l2.87,2.81,0,0a11.12,11.12,0,0,0,0,15.73l3.83,3.83h0l3.81,3.81a11.13,11.13,0,0,0,15.73,0l0,0,2.82,2.86A15,15,0,0,1,128.4,40.37Z"/><rect class="cls-1" x="79.26" y="51.64" width="26.12" height="4.02" transform="translate(-10.89 81) rotate(-45)"/><path class="cls-1" d="M78.4,15.18H67.57A15.16,15.16,0,0,1,52.43,0l4,0V0A11.13,11.13,0,0,0,67.57,11.16H78.4A11.13,11.13,0,0,0,89.52,0l4,0A15.17,15.17,0,0,1,78.4,15.18Z"/><rect class="cls-1" x="70.97" y="32.57" width="4.02" height="26.12"/><path class="cls-1" d="M17.57,40.37a15.1,15.1,0,0,1-10.7-4.43l2.81-2.87,0,0a11.13,11.13,0,0,0,15.73,0l7.65-7.65a11.12,11.12,0,0,0,0-15.73l2.82-2.87a15.15,15.15,0,0,1,0,21.44l-3.81,3.81,0,0-3.83,3.83A15.1,15.1,0,0,1,17.57,40.37Z"/><rect class="cls-1" x="51.64" y="40.59" width="4.02" height="26.12" transform="translate(-22.22 53.65) rotate(-45)"/><path class="cls-1" d="M0,93.54l0-4H0A11.13,11.13,0,0,0,11.16,78.4V67.57A11.13,11.13,0,0,0,0,56.45l0-4A15.17,15.17,0,0,1,15.18,67.57V78.4A15.16,15.16,0,0,1,0,93.54Z"/><rect class="cls-1" x="32.57" y="70.98" width="26.12" height="4.02"/><path class="cls-1" d="M35.94,139.1l-2.88-2.8,0,0a11.13,11.13,0,0,0,0-15.74l-7.65-7.65a11.13,11.13,0,0,0-15.73,0l-2.87-2.82a15.17,15.17,0,0,1,21.44,0l7.66,7.66a15.15,15.15,0,0,1,0,21.41Z"/><rect class="cls-1" x="40.58" y="90.31" width="26.12" height="4.02" transform="translate(-49.57 64.97) rotate(-45)"/><path class="cls-1" d="M73,89.28a16.29,16.29,0,1,1,11.53-4.77A16.18,16.18,0,0,1,73,89.28Zm0-28.57a12.27,12.27,0,1,0,8.69,3.6A12.21,12.21,0,0,0,73,60.71Z"/><path class="cls-1" d="M73,134.81A11.72,11.72,0,1,1,84.7,123.1,11.73,11.73,0,0,1,73,134.81Zm0-19.4a7.69,7.69,0,1,0,7.69,7.69A7.7,7.7,0,0,0,73,115.41Z"/><path class="cls-1" d="M108.42,120.13a11.71,11.71,0,1,1,8.29-20h0a11.71,11.71,0,0,1-8.29,20Zm0-19.4a7.69,7.69,0,1,0,5.44,2.25A7.67,7.67,0,0,0,108.42,100.73Z"/><path class="cls-1" d="M108.42,49.26a11.72,11.72,0,0,1-8.28-20h0a11.72,11.72,0,1,1,8.28,20ZM103,32.11a7.69,7.69,0,1,0,10.88,0,7.7,7.7,0,0,0-10.88,0Z"/><path class="cls-1" d="M73,34.59A11.72,11.72,0,1,1,84.7,22.87,11.74,11.74,0,0,1,73,34.59Zm0-19.41a7.69,7.69,0,1,0,7.69,7.69A7.7,7.7,0,0,0,73,15.18Z"/><path class="cls-1" d="M37.55,49.26a11.68,11.68,0,0,1-8.29-3.43h0a11.72,11.72,0,1,1,8.29,3.43ZM32.11,43a7.69,7.69,0,1,0,0-10.88,7.7,7.7,0,0,0,0,10.88Z"/><path class="cls-1" d="M22.87,84.7A11.72,11.72,0,1,1,34.59,73,11.73,11.73,0,0,1,22.87,84.7Zm0-19.41A7.7,7.7,0,1,0,30.56,73,7.7,7.7,0,0,0,22.87,65.29Z"/><path class="cls-1" d="M37.55,120.13a11.71,11.71,0,1,1,8.28-20,11.72,11.72,0,0,1,0,16.57h0A11.67,11.67,0,0,1,37.55,120.13Zm0-19.4A7.69,7.69,0,1,0,43,113.86h0a7.69,7.69,0,0,0-5.44-13.13Z"/></g></g></svg>