<svg xmlns="http://www.w3.org/2000/svg" viewBox="0 0 159.56 141.95"><defs><style>.cls-1{fill:#281d3d;}</style></defs><g id="Layer_2" data-name="Layer 2"><g id="Layer_1-2" data-name="Layer 1"><path class="cls-1" d="M80.28,101.79a4.75,4.75,0,1,1-4.75,4.74,4.75,4.75,0,0,1,4.75-4.74m0-4a8.77,8.77,0,1,0,8.77,8.77A8.77,8.77,0,0,0,80.28,97.76Z"/><path class="cls-1" d="M143.22,142a3,3,0,0,1,0-6h0a3,3,0,1,1,0,6Zm-12,0a3,3,0,1,1,0-6h0a3,3,0,1,1,0,6Zm-12,0a3,3,0,1,1,0-6h0a3,3,0,1,1,0,6Zm-12,0a3,3,0,0,1,0-6h0a3,3,0,0,1,0,6Zm-12,0a3,3,0,0,1,0-6h0a3,3,0,1,1,0,6Zm-12,0a3,3,0,1,1,0-6h0a3,3,0,1,1,0,6Zm-12,0a3,3,0,1,1,0-6h0a3,3,0,1,1,0,6Zm-12,0a3,3,0,0,1,0-6h0a3,3,0,0,1,0,6Zm-12,0a3,3,0,0,1,0-6h0a3,3,0,1,1,0,6Zm-12,0a3,3,0,1,1,0-6h0a3,3,0,1,1,0,6Zm-12,0a3,3,0,1,1,0-6h0a3,3,0,1,1,0,6Zm-12,0a3,3,0,0,1,0-6h0a3,3,0,0,1,0,6Zm143.16-2.09a3,3,0,1,1,2.31-1.09,2.91,2.91,0,0,1-.43.43A3,3,0,0,1,154.69,139.86ZM3,134.92a3,3,0,0,1-2.93-2.28c0-.08,0-.17,0-.24a3,3,0,1,1,3.71,2.43A3.1,3.1,0,0,1,3,134.92ZM156.55,129a3,3,0,1,1,2.5-4.7,2.79,2.79,0,0,1,.19.33,3,3,0,0,1-2.69,4.37Zm-149.63-5a3,3,0,0,1-1.46-.38,3,3,0,1,1,4.1-1.17h0A3,3,0,0,1,6.92,123.94Zm143.64-5.33a3,3,0,0,1-2.64-1.55h0a3,3,0,1,1,4.1,1.18A3,3,0,0,1,150.56,118.61Zm-137.65-5A3,3,0,1,1,15.55,112h0A3,3,0,0,1,12.91,113.57Zm131.66-5.33a3,3,0,0,1-2.55-1.42h0a3,3,0,1,1,2.56,1.42Zm-125.68-5a3.09,3.09,0,0,1-1.46-.38,3,3,0,1,1,4.1-1.18h0A3,3,0,0,1,18.89,103.21Zm119.7-5.34A3,3,0,0,1,136,96.32h0a3,3,0,1,1,4.1,1.17A3,3,0,0,1,138.59,97.87Zm-113.71-5a3.07,3.07,0,0,1-1.71-.53,3,3,0,1,1,4.2-.78h0A3,3,0,0,1,24.88,92.84ZM132.6,87.5A3,3,0,0,1,130,86h0a3,3,0,1,1,2.64,1.55Zm-101.74-5A3,3,0,1,1,33.44,81h0A3,3,0,0,1,30.86,82.47Zm95.76-5.34a3,3,0,0,1-2.56-1.41h0a3,3,0,1,1,4.15,1A2.9,2.9,0,0,1,126.62,77.13Zm-89.77-5a3,3,0,0,1-1.46-.38,3,3,0,1,1,4.1-1.18h0A3,3,0,0,1,36.85,72.1Zm83.78-5.33a3,3,0,0,1-2.57-1.45h0a3,3,0,1,1,2.58,1.45Zm-77.79-5a3,3,0,1,1,2.56-1.42h0A3,3,0,0,1,42.84,61.73Zm71.8-5.33A3,3,0,0,1,112.07,55h0a3,3,0,1,1,2.57,1.45Zm-65.82-5A3,3,0,0,1,47.36,51a3,3,0,1,1,4.1-1.17h0A3,3,0,0,1,48.82,51.36ZM108.66,46A3,3,0,0,1,106,44.48h0a3,3,0,1,1,4.1,1.18A3,3,0,0,1,108.66,46ZM54.81,41a3,3,0,0,1-1.46-.38,3,3,0,1,1,4.1-1.17h0A3,3,0,0,1,54.81,41Zm47.86-5.33A3,3,0,0,1,100,34.11h0a3,3,0,1,1,4.1,1.17A3,3,0,0,1,102.67,35.66Zm-41.87-5a3.13,3.13,0,0,1-1.47-.38,3,3,0,1,1,4.11-1.18h0A3,3,0,0,1,60.8,30.63Zm35.88-5.34a3,3,0,0,1-2.63-1.55h0a3,3,0,1,1,2.63,1.55Zm-29.9-5a3,3,0,0,1-1.46-.38,3,3,0,1,1,4.1-1.18h0A3,3,0,0,1,66.78,20.26ZM90.7,14.92a3,3,0,0,1-2.64-1.55h0a3,3,0,1,1,4.1,1.17A3,3,0,0,1,90.7,14.92Zm-17.93-5a3,3,0,0,1-1.46-.38,3,3,0,0,1-1.18-4.1l0-.07h0a3,3,0,0,1,5.32,2.84,1.62,1.62,0,0,1-.1.18A3,3,0,0,1,72.77,9.89ZM83.16,6a3.13,3.13,0,0,1-.9-.14A3,3,0,0,1,84,.12l.13,0a3,3,0,0,1-1,5.88Z"/><path class="cls-1" d="M85.17,115.46A7.84,7.84,0,0,1,93,122.84c0,.19,0,.34,0,.46v1.9H67.55v-1.9c0-.17,0-.35,0-.54a7.86,7.86,0,0,1,7.83-7.3h9.78m0-4H75.39a11.87,11.87,0,0,0-11.84,11.07c0,.26,0,.53,0,.79v5.92H97V123.3c0-.23,0-.45,0-.68A11.86,11.86,0,0,0,85.17,111.44Z"/><path class="cls-1" d="M80.28,56.4a4.75,4.75,0,1,1-4.75,4.75,4.75,4.75,0,0,1,4.75-4.75m0-4a8.77,8.77,0,1,0,8.77,8.77A8.77,8.77,0,0,0,80.28,52.38Z"/><path class="cls-1" d="M85.17,70.08A7.83,7.83,0,0,1,93,77.45c0,.2,0,.34,0,.47v1.9H67.55v-1.9c0-.17,0-.35,0-.55a7.86,7.86,0,0,1,7.83-7.29h9.78m0-4H75.39A11.87,11.87,0,0,0,63.55,77.12c0,.27,0,.53,0,.8v5.92H97V77.92c0-.23,0-.46,0-.68A11.87,11.87,0,0,0,85.17,66.05Z"/><path class="cls-1" d="M111,79.09a4.75,4.75,0,1,1-4.74,4.75A4.75,4.75,0,0,1,111,79.09m0-4a8.77,8.77,0,1,0,8.77,8.77A8.77,8.77,0,0,0,111,75.07Z"/><path class="cls-1" d="M115.94,92.77a7.83,7.83,0,0,1,7.82,7.38,4.12,4.12,0,0,1,0,.46v1.9H98.31v-1.9c0-.17,0-.35,0-.55a7.85,7.85,0,0,1,7.82-7.29h9.79m0-4h-9.79A11.86,11.86,0,0,0,94.31,99.82c0,.26,0,.52,0,.79v5.92H127.8v-5.92c0-.23,0-.45,0-.68A11.86,11.86,0,0,0,115.94,88.75Z"/><path class="cls-1" d="M49.52,79.09a4.75,4.75,0,1,1-4.75,4.75,4.75,4.75,0,0,1,4.75-4.75m0-4a8.77,8.77,0,1,0,8.77,8.77A8.77,8.77,0,0,0,49.52,75.07Z"/><path class="cls-1" d="M54.41,92.77a7.86,7.86,0,0,1,7.83,7.29c0,.2,0,.38,0,.55v1.9H36.78v-1.9c0-.12,0-.27,0-.45a7.83,7.83,0,0,1,7.83-7.39h9.78m0-4H44.63A11.86,11.86,0,0,0,32.78,99.93c0,.23,0,.45,0,.68v5.92H66.27v-5.92c0-.27,0-.53,0-.79A11.86,11.86,0,0,0,54.41,88.75Z"/></g></g></svg>