M48
;GenerationSoftware,Autodesk,EAGLE,9.6.2*%
;CreationDate,2020-11-18T00:12:20Z*%
FMAT,2
ICI,OFF
METRIC,TZ,000.000
T5C0.350
T4C0.560
T3C0.710
T2C0.900
T1C1.200
%
G90
M71
T1
X8883Y28892
X12382Y28892
X-325Y28892
X3175Y28892
X-9850Y28892
X-6350Y28892
X-2200Y-28892
X-5700Y-28892
X-9200Y-28892
X-12700Y-28892
T2
X-18733Y-18185
X-18733Y-21185
T3
X-17463Y-2460
X-17463Y-8970
T4
X-15062Y-9330
X-15062Y-2100
T5
X-12065Y-21273
X-15240Y7816
X-14439Y11430
X-16510Y21273
X4763Y952
X635Y4763
X10795Y-6985
X-3492Y1905
X13970Y-12382
X13201Y-9843
X9843Y4763
X1587Y-12065
X-8255Y4763
X2540Y-12844
X-13017Y24765
X-16518Y7418
X-19050Y2540
X-9208Y-952
X-11747Y-8890
X-12984Y-21273
X-15875Y-16192
X-12382Y-1270
X-13970Y12318
X-19844Y12065
X14605Y-9525
X-1270Y-8736
X-635Y-6985
X4128Y-2540
X9208Y-12382
X12065Y3810
X-4763Y-3810
X-2857Y-2223
X2223Y6032
X318Y1270
X8573Y-3810
X11430Y-3810
X2223Y-19368
X7937Y-20638
X-10478Y952
X-952Y-5715
M30