<svg xmlns="http://www.w3.org/2000/svg" viewBox="0 0 157.61 122.07"><defs><style>.cls-1{fill:#0071ff;}.cls-2{fill:#fff;}</style></defs><g id="Layer_2" data-name="Layer 2"><g id="Layer_1-2" data-name="Layer 1"><path class="cls-1" d="M72.45,60.61H46.93v-4H71.14L95.36,1.2A2,2,0,0,1,97,0a2.06,2.06,0,0,1,1.84.78l18.55,24.38-3.2,2.43L97.68,6,74.29,59.4A2,2,0,0,1,72.45,60.61Z"/><rect class="cls-2" x="26.13" width="26.94" height="4.02"/><rect class="cls-1" x="76.47" width="20.74" height="4.02"/><path class="cls-2" d="M78.8,122.07c-17.7,0-32.11-13.07-32.11-29.13a2,2,0,0,1,4,0c0,13.84,12.6,25.11,28.09,25.11s28.1-11.27,28.1-25.11a2,2,0,0,1,4,0C110.92,109,96.51,122.07,78.8,122.07Z"/><path class="cls-1" d="M127.71,75.84a2.06,2.06,0,0,1-1.14-.35,147.09,147.09,0,0,1-14.16-11.26C102.72,55.45,97.8,48.07,97.8,42.29c0-8.94,6.92-18.51,17.22-18.51a15.23,15.23,0,0,1,12.69,6.42,15.22,15.22,0,0,1,12.69-6.42c10.29,0,17.21,9.57,17.21,18.52,0,5.77-4.91,13.15-14.61,21.94a146.52,146.52,0,0,1-14.16,11.25A2,2,0,0,1,127.71,75.84ZM115,27.8c-5.53,0-13.19,5-13.19,14.49,0,8.93,17.71,23.31,25.88,29.09,8.16-5.77,25.88-20.15,25.88-29.08,0-9.46-7.66-14.5-13.19-14.5a11.74,11.74,0,0,0-10.82,7.14,2,2,0,0,1-1.87,1.28h0a2,2,0,0,1-1.87-1.29A11.73,11.73,0,0,0,115,27.8Z"/><path class="cls-1" d="M29.9,75.84a2,2,0,0,1-1.13-.35A145.72,145.72,0,0,1,14.61,64.23C4.91,55.45,0,48.07,0,42.29c0-8.94,6.92-18.51,17.21-18.51A15.22,15.22,0,0,1,29.9,30.2a15.23,15.23,0,0,1,12.69-6.42c10.3,0,17.21,9.57,17.21,18.52,0,5.77-4.91,13.15-14.6,21.94A147.91,147.91,0,0,1,31,75.49,2.06,2.06,0,0,1,29.9,75.84Zm-12.69-48C11.68,27.8,4,32.84,4,42.29,4,51.22,21.73,65.6,29.9,71.38c8.17-5.77,25.88-20.15,25.88-29.08,0-9.46-7.66-14.5-13.19-14.5a11.72,11.72,0,0,0-10.81,7.14,2,2,0,0,1-1.88,1.28h0A2,2,0,0,1,28,34.93,11.72,11.72,0,0,0,17.21,27.8Z"/></g></g></svg>