<svg xmlns="http://www.w3.org/2000/svg" viewBox="0 0 203.11 101.68"><defs><style>.cls-1{fill:#0071ff;}.cls-2{fill:#fff;}</style></defs><g id="Layer_2" data-name="Layer 2"><g id="Layer_1-2" data-name="Layer 1"><path class="cls-1" d="M134.41,29.76l-3.31-2.28L147.24,4H129.9V0h21.17a2,2,0,0,1,1.77,1.07,2,2,0,0,1-.12,2.08Z"/><path class="cls-1" d="M45.33,101.68A29.46,29.46,0,1,1,74.79,72.23,29.48,29.48,0,0,1,45.33,101.68Zm0-54.89A25.44,25.44,0,1,0,70.76,72.23,25.46,25.46,0,0,0,45.33,46.79Z"/><path class="cls-1" d="M157.78,101.68a29.46,29.46,0,1,1,29.45-29.45A29.48,29.48,0,0,1,157.78,101.68Zm0-54.89a25.44,25.44,0,1,0,25.43,25.44A25.47,25.47,0,0,0,157.78,46.79Z"/><rect class="cls-1" x="66.23" y="6.49" width="20.36" height="4.02"/><rect class="cls-2" x="167.66" y="27.46" width="11.36" height="4.02" transform="matrix(0.34, -0.94, 0.94, 0.34, 86.36, 182.28)"/><rect class="cls-2" x="27.76" y="23.79" width="4.02" height="11.36" transform="translate(-8.28 11.96) rotate(-20)"/><rect class="cls-2" x="14.07" y="31.69" width="4.02" height="11.36" transform="translate(-20.26 19.08) rotate(-40)"/><rect class="cls-2" x="3.92" y="43.79" width="4.02" height="11.36" transform="translate(-39.88 29.87) rotate(-60)"/><rect class="cls-2" x="181.34" y="35.36" width="11.36" height="4.02" transform="translate(38.18 156.62) rotate(-50)"/><rect class="cls-2" x="191.5" y="47.47" width="11.36" height="4.02" transform="translate(1.68 105.22) rotate(-30)"/><path class="cls-2" d="M102.74,74.24a2,2,0,0,1-1.13-.36,2,2,0,0,1-.52-2.79l30-43.61a2,2,0,1,1,3.31,2.28l-30,43.61A2,2,0,0,1,102.74,74.24Z"/><path class="cls-1" d="M62.55,50.76l-3.32-2.28L75,25.59a2,2,0,0,1,1.66-.87h56.62v4H77.7Z"/><path class="cls-1" d="M102.75,74.24h-30v-4h26.5L74.9,27.73l3.48-2,26.11,45.5a2,2,0,0,1-1.74,3Z"/><rect class="cls-1" x="135.88" y="25.07" width="4.02" height="25.01" transform="translate(-0.41 73.62) rotate(-29.85)"/></g></g></svg>