<svg xmlns="http://www.w3.org/2000/svg" viewBox="0 0 214.3 108.47"><defs><style>.cls-1{fill:#fff;}</style></defs><g id="Layer_2" data-name="Layer 2"><g id="Layer_1-2" data-name="Layer 1"><rect class="cls-1" x="171.14" y="31.85" width="4.02" height="53.58" transform="translate(-6.22 93.96) rotate(-29.85)"/><path class="cls-1" d="M184.84,108.47A29.46,29.46,0,1,1,214.3,79,29.49,29.49,0,0,1,184.84,108.47Zm0-54.89A25.44,25.44,0,1,0,210.28,79,25.46,25.46,0,0,0,184.84,53.58Z"/><path class="cls-1" d="M110.3,97.59c-2.41,0-4.8,0-7.16-.06-2.87,0-5.84-.08-8.76-.06l0-4c3,0,6,0,8.83.06,4.71.06,9.56.13,14.32-.07,3.21-4.33,6.25-8.84,9.2-13.22,2.38-3.52,4.83-7.16,7.38-10.73l3.27,2.34c-2.52,3.52-5,7.14-7.31,10.64-3.15,4.67-6.41,9.51-9.88,14.14a2,2,0,0,1-1.51.8C115.88,97.55,113.08,97.59,110.3,97.59Z"/><path class="cls-1" d="M146.46,58.6l-3.32-2.27.61-.89C152.31,43,161.13,30.06,169.58,17c-9,0-22.67,0-30.13,0v-4c8.57,0,25.3,0,33.79,0h0A2,2,0,0,1,175,14h.06a1.11,1.11,0,0,1,.07.16h0a2.36,2.36,0,0,1,.1.46h0a2,2,0,0,1-.1.83h0A1.77,1.77,0,0,1,175,16l0,0c-9.07,14.22-18.63,28.18-27.88,41.68Z"/><path class="cls-1" d="M90.4,40.67H69.68a6.91,6.91,0,0,1-6.21-4.24c-.64-1.49-1.66-5.44,2.61-9.92,4.5-4.71,13.13-11,28.69-14.28a84.7,84.7,0,0,1,16.76-1.89,2,2,0,0,1,1.79,1.15,2,2,0,0,1-.24,2.12L92,39.92A2,2,0,0,1,90.4,40.67Zm16.76-26.12c-8.45.63-27.27,3.32-38.17,14.74-1.84,1.93-2.51,4-1.82,5.55a2.87,2.87,0,0,0,2.51,1.81H89.43Z"/><rect class="cls-1" x="105.12" y="49.56" width="16.25" height="4.02"/><path class="cls-1" d="M136.17,85.23l-1.42-13-13,1.42-.43-4,15-1.64a2,2,0,0,1,1.48.43,2.06,2.06,0,0,1,.74,1.35l1.64,15Z"/><path class="cls-1" d="M15.54,90.39H2a2,2,0,0,1-2-2V76a2,2,0,0,1,2-2H15.54a2,2,0,0,1,2,2v12.4A2,2,0,0,1,15.54,90.39ZM4,86.36h9.51V78H4Z"/><path class="cls-1" d="M16.45,67.55,14.63,64,32.12,55l1-1.79-1,1.75L21.55,49l2-3.5,10.57,6A4,4,0,0,1,34,58.62Z"/><path class="cls-1" d="M50.29,97.43l-35.15-7a2,2,0,0,1-1.61-2V60.28c0-8.54,7.7-14.93,15.85-21.69,1.76-1.46,3.57-3,5.35-4.52l.16-.14C46.05,24.15,75.7-1.82,118.91.1l-.18,4C77.12,2.26,48.37,27.46,37.54,37l-.16.15c-1.82,1.58-3.66,3.11-5.43,4.59-7.73,6.41-14.4,11.94-14.4,18.59V86.77l33.53,6.72Z"/><path class="cls-1" d="M72.4,108.47A29.46,29.46,0,1,1,101.85,79,29.5,29.5,0,0,1,72.4,108.47Zm0-54.89A25.44,25.44,0,1,0,97.83,79,25.46,25.46,0,0,0,72.4,53.58Z"/></g></g></svg>