G04 EAGLE Gerber RS-274X export*
G75*
%MOMM*%
%FSLAX34Y34*%
%LPD*%
%INSilkscreen Top*%
%IPPOS*%
%AMOC8*
5,1,8,0,0,1.08239X$1,22.5*%
G01*
%ADD10C,0.076200*%
%ADD11C,0.152400*%
%ADD12R,0.457200X0.762000*%
%ADD13C,0.050800*%
%ADD14C,0.203200*%
%ADD15C,0.558800*%
%ADD16C,0.150113*%
%ADD17C,0.127000*%
%ADD18C,0.254000*%
%ADD19C,0.200000*%


D10*
X-148844Y295537D02*
X-148844Y286131D01*
X-142573Y286131D01*
X-139489Y295537D02*
X-133218Y295537D01*
X-139489Y295537D02*
X-139489Y286131D01*
X-133218Y286131D01*
X-136353Y290834D02*
X-139489Y290834D01*
X-130134Y295537D02*
X-130134Y286131D01*
X-125431Y286131D01*
X-123863Y287699D01*
X-123863Y293969D01*
X-125431Y295537D01*
X-130134Y295537D01*
X165990Y-108323D02*
X165990Y-117729D01*
X172261Y-117729D02*
X165990Y-108323D01*
X172261Y-108323D02*
X172261Y-117729D01*
X175346Y-117729D02*
X175346Y-108323D01*
X180049Y-108323D01*
X181616Y-109891D01*
X181616Y-113026D01*
X180049Y-114594D01*
X175346Y-114594D01*
X178481Y-114594D02*
X181616Y-117729D01*
X184701Y-117729D02*
X184701Y-108323D01*
X190972Y-108323D01*
X187836Y-113026D02*
X184701Y-113026D01*
X-109004Y226317D02*
X-113919Y226317D01*
X-18669Y223142D02*
X-13754Y223142D01*
X76581Y223142D02*
X81496Y223142D01*
X41747Y-214626D02*
X35476Y-214626D01*
X38611Y-211491D02*
X38611Y-217761D01*
X54526Y-214626D02*
X60797Y-214626D01*
X-129534Y-241673D02*
X-135804Y-241673D01*
X-135804Y-246376D01*
X-132669Y-244808D01*
X-131101Y-244808D01*
X-129534Y-246376D01*
X-129534Y-249511D01*
X-131101Y-251079D01*
X-134237Y-251079D01*
X-135804Y-249511D01*
X-126449Y-247944D02*
X-126449Y-241673D01*
X-126449Y-247944D02*
X-123314Y-251079D01*
X-120179Y-247944D01*
X-120179Y-241673D01*
X-97874Y-241673D02*
X-97874Y-251079D01*
X-93171Y-251079D01*
X-91604Y-249511D01*
X-91604Y-243241D01*
X-93171Y-241673D01*
X-97874Y-241673D01*
X-29332Y-241673D02*
X-27764Y-243241D01*
X-29332Y-241673D02*
X-32467Y-241673D01*
X-34035Y-243241D01*
X-34035Y-249511D01*
X-32467Y-251079D01*
X-29332Y-251079D01*
X-27764Y-249511D01*
X-27764Y-246376D01*
X-30899Y-246376D01*
X-24679Y-251079D02*
X-24679Y-241673D01*
X-18409Y-251079D01*
X-18409Y-241673D01*
X-15324Y-241673D02*
X-15324Y-251079D01*
X-10621Y-251079D01*
X-9054Y-249511D01*
X-9054Y-243241D01*
X-10621Y-241673D01*
X-15324Y-241673D01*
X-59774Y-241673D02*
X-59774Y-251079D01*
X-59774Y-241673D02*
X-55071Y-241673D01*
X-53504Y-243241D01*
X-53504Y-244808D01*
X-55071Y-246376D01*
X-53504Y-247944D01*
X-53504Y-249511D01*
X-55071Y-251079D01*
X-59774Y-251079D01*
X-59774Y-246376D02*
X-55071Y-246376D01*
D11*
X169418Y51808D02*
X169418Y57231D01*
X169418Y51808D02*
X153148Y51808D01*
X153148Y57231D01*
X153148Y62722D02*
X169418Y62722D01*
X169418Y70857D01*
X166706Y73569D01*
X161283Y73569D01*
X158571Y70857D01*
X158571Y62722D01*
X158571Y79094D02*
X158571Y81805D01*
X169418Y81805D01*
X169418Y79094D02*
X169418Y84517D01*
X153148Y81805D02*
X150436Y81805D01*
X153148Y90008D02*
X169418Y90008D01*
X163995Y90008D02*
X169418Y98143D01*
X163995Y90008D02*
X158571Y98143D01*
X169418Y106363D02*
X169418Y111786D01*
X169418Y106363D02*
X166706Y103651D01*
X161283Y103651D01*
X158571Y106363D01*
X158571Y111786D01*
X161283Y114498D01*
X163995Y114498D01*
X163995Y103651D01*
X169418Y120022D02*
X169418Y125446D01*
X153148Y125446D01*
X153148Y120022D01*
X169418Y130937D02*
X169418Y139072D01*
X166706Y141783D01*
X163995Y139072D01*
X163995Y133648D01*
X161283Y130937D01*
X158571Y133648D01*
X158571Y141783D01*
X158571Y147308D02*
X166706Y147308D01*
X169418Y150020D01*
X166706Y152732D01*
X169418Y155443D01*
X166706Y158155D01*
X158571Y158155D01*
X158571Y166392D02*
X158571Y171815D01*
X161283Y174527D01*
X169418Y174527D01*
X169418Y166392D01*
X166706Y163680D01*
X163995Y166392D01*
X163995Y174527D01*
X169418Y180052D02*
X158571Y180052D01*
X158571Y185475D02*
X163995Y180052D01*
X158571Y185475D02*
X158571Y188186D01*
X158571Y193695D02*
X169418Y193695D01*
X158571Y193695D02*
X158571Y196406D01*
X161283Y199118D01*
X169418Y199118D01*
X161283Y199118D02*
X158571Y201829D01*
X161283Y204541D01*
X169418Y204541D01*
X196088Y59943D02*
X196088Y51808D01*
X196088Y59943D02*
X193376Y62654D01*
X190665Y59943D01*
X190665Y54519D01*
X187953Y51808D01*
X185241Y54519D01*
X185241Y62654D01*
X185241Y68179D02*
X193376Y68179D01*
X196088Y70891D01*
X193376Y73602D01*
X196088Y76314D01*
X193376Y79026D01*
X185241Y79026D01*
X185241Y87262D02*
X185241Y92686D01*
X187953Y95397D01*
X196088Y95397D01*
X196088Y87262D01*
X193376Y84551D01*
X190665Y87262D01*
X190665Y95397D01*
X196088Y100922D02*
X185241Y100922D01*
X190665Y100922D02*
X185241Y106346D01*
X185241Y109057D01*
X185241Y114565D02*
X196088Y114565D01*
X185241Y114565D02*
X185241Y117277D01*
X187953Y119989D01*
X196088Y119989D01*
X187953Y119989D02*
X185241Y122700D01*
X187953Y125412D01*
X196088Y125412D01*
X196088Y130937D02*
X196088Y139072D01*
X193376Y141783D01*
X190665Y139072D01*
X190665Y133648D01*
X187953Y130937D01*
X185241Y133648D01*
X185241Y141783D01*
X193376Y147308D02*
X196088Y147308D01*
X193376Y147308D02*
X193376Y150020D01*
X196088Y150020D01*
X196088Y147308D01*
X185241Y158206D02*
X185241Y166341D01*
X185241Y158206D02*
X187953Y155494D01*
X193376Y155494D01*
X196088Y158206D01*
X196088Y166341D01*
X185241Y171866D02*
X185241Y174577D01*
X196088Y174577D01*
X196088Y171866D02*
X196088Y177289D01*
X179818Y174577D02*
X177106Y174577D01*
X182530Y185492D02*
X193376Y185492D01*
X196088Y188203D01*
X185241Y188203D02*
X185241Y182780D01*
X185241Y193695D02*
X193376Y193695D01*
X196088Y196406D01*
X196088Y204541D01*
X198800Y204541D02*
X185241Y204541D01*
X198800Y204541D02*
X201511Y201829D01*
X201511Y199118D01*
D10*
X-100959Y250452D02*
X-107229Y250452D01*
X-107229Y245749D01*
X-104094Y247317D01*
X-102526Y247317D01*
X-100959Y245749D01*
X-100959Y242614D01*
X-102526Y241046D01*
X-105662Y241046D01*
X-107229Y242614D01*
X-97874Y244181D02*
X-97874Y250452D01*
X-97874Y244181D02*
X-94739Y241046D01*
X-91604Y244181D01*
X-91604Y250452D01*
X-11979Y250452D02*
X-5709Y250452D01*
X-11979Y250452D02*
X-11979Y245749D01*
X-8844Y247317D01*
X-7276Y247317D01*
X-5709Y245749D01*
X-5709Y242614D01*
X-7276Y241046D01*
X-10412Y241046D01*
X-11979Y242614D01*
X-2624Y244181D02*
X-2624Y250452D01*
X-2624Y244181D02*
X511Y241046D01*
X3647Y244181D01*
X3647Y250452D01*
X80096Y250452D02*
X86366Y250452D01*
X80096Y250452D02*
X80096Y245749D01*
X83231Y247317D01*
X84799Y247317D01*
X86366Y245749D01*
X86366Y242614D01*
X84799Y241046D01*
X81663Y241046D01*
X80096Y242614D01*
X89451Y244181D02*
X89451Y250452D01*
X89451Y244181D02*
X92586Y241046D01*
X95722Y244181D01*
X95722Y250452D01*
X-69039Y248884D02*
X-70607Y250452D01*
X-73742Y250452D01*
X-75310Y248884D01*
X-75310Y242614D01*
X-73742Y241046D01*
X-70607Y241046D01*
X-69039Y242614D01*
X-69039Y245749D01*
X-72174Y245749D01*
X-65954Y241046D02*
X-65954Y250452D01*
X-59684Y241046D01*
X-59684Y250452D01*
X-56599Y250452D02*
X-56599Y241046D01*
X-51896Y241046D01*
X-50329Y242614D01*
X-50329Y248884D01*
X-51896Y250452D01*
X-56599Y250452D01*
X24643Y250452D02*
X26211Y248884D01*
X24643Y250452D02*
X21508Y250452D01*
X19940Y248884D01*
X19940Y242614D01*
X21508Y241046D01*
X24643Y241046D01*
X26211Y242614D01*
X26211Y245749D01*
X23076Y245749D01*
X29296Y241046D02*
X29296Y250452D01*
X35566Y241046D01*
X35566Y250452D01*
X38651Y250452D02*
X38651Y241046D01*
X43354Y241046D01*
X44922Y242614D01*
X44922Y248884D01*
X43354Y250452D01*
X38651Y250452D01*
X116718Y250452D02*
X118286Y248884D01*
X116718Y250452D02*
X113583Y250452D01*
X112015Y248884D01*
X112015Y242614D01*
X113583Y241046D01*
X116718Y241046D01*
X118286Y242614D01*
X118286Y245749D01*
X115151Y245749D01*
X121371Y241046D02*
X121371Y250452D01*
X127641Y241046D01*
X127641Y250452D01*
X130726Y250452D02*
X130726Y241046D01*
X135429Y241046D01*
X136997Y242614D01*
X136997Y248884D01*
X135429Y250452D01*
X130726Y250452D01*
X-117295Y-225798D02*
X-117295Y-235204D01*
X-111024Y-235204D01*
X-107940Y-225798D02*
X-101669Y-225798D01*
X-107940Y-225798D02*
X-107940Y-235204D01*
X-101669Y-235204D01*
X-104804Y-230501D02*
X-107940Y-230501D01*
X-98584Y-225798D02*
X-98584Y-235204D01*
X-93881Y-235204D01*
X-92314Y-233636D01*
X-92314Y-227366D01*
X-93881Y-225798D01*
X-98584Y-225798D01*
X-75171Y-225798D02*
X-73603Y-227366D01*
X-75171Y-225798D02*
X-78306Y-225798D01*
X-79874Y-227366D01*
X-79874Y-228933D01*
X-78306Y-230501D01*
X-75171Y-230501D01*
X-73603Y-232069D01*
X-73603Y-233636D01*
X-75171Y-235204D01*
X-78306Y-235204D01*
X-79874Y-233636D01*
X-68951Y-233636D02*
X-68951Y-227366D01*
X-68951Y-233636D02*
X-67383Y-235204D01*
X-67383Y-228933D02*
X-70519Y-228933D01*
X-64282Y-228933D02*
X-64282Y-235204D01*
X-64282Y-232069D02*
X-61147Y-228933D01*
X-59579Y-228933D01*
X-56486Y-228933D02*
X-54918Y-228933D01*
X-54918Y-235204D01*
X-53351Y-235204D02*
X-56486Y-235204D01*
X-54918Y-225798D02*
X-54918Y-224230D01*
X-50249Y-228933D02*
X-50249Y-238339D01*
X-50249Y-228933D02*
X-45546Y-228933D01*
X-43979Y-230501D01*
X-43979Y-233636D01*
X-45546Y-235204D01*
X-50249Y-235204D01*
D12*
X-63627Y-52502D03*
D13*
X-70041Y-60625D02*
X-70041Y-66218D01*
X-70041Y-60625D02*
X-67244Y-60625D01*
X-66312Y-61557D01*
X-66312Y-63422D01*
X-67244Y-64354D01*
X-70041Y-64354D01*
X-68176Y-64354D02*
X-66312Y-66218D01*
X-64427Y-62490D02*
X-62563Y-60625D01*
X-62563Y-66218D01*
X-64427Y-66218D02*
X-60699Y-66218D01*
X-58814Y-62490D02*
X-56950Y-60625D01*
X-56950Y-66218D01*
X-58814Y-66218D02*
X-55086Y-66218D01*
D14*
X-58752Y-32946D02*
X-58752Y-28346D01*
X-58752Y-23746D01*
X-58752Y-28346D02*
X-61852Y-30684D01*
X-58906Y-28092D02*
X-61852Y-26162D01*
D13*
X-46228Y-26627D02*
X-46228Y-32220D01*
X-42500Y-32220D01*
X-40615Y-26627D02*
X-36886Y-26627D01*
X-40615Y-26627D02*
X-40615Y-32220D01*
X-36886Y-32220D01*
X-38751Y-29424D02*
X-40615Y-29424D01*
X-35002Y-32220D02*
X-35002Y-26627D01*
X-35002Y-32220D02*
X-32205Y-32220D01*
X-31273Y-31288D01*
X-31273Y-27559D01*
X-32205Y-26627D01*
X-35002Y-26627D01*
X-29389Y-28491D02*
X-27524Y-26627D01*
X-27524Y-32220D01*
X-25660Y-32220D02*
X-29389Y-32220D01*
D12*
X-9525Y-168275D03*
D13*
X-25908Y-173847D02*
X-31501Y-173847D01*
X-31501Y-171051D01*
X-30569Y-170119D01*
X-28704Y-170119D01*
X-27772Y-171051D01*
X-27772Y-173847D01*
X-27772Y-171983D02*
X-25908Y-170119D01*
X-30569Y-166370D02*
X-31501Y-164506D01*
X-30569Y-166370D02*
X-28704Y-168234D01*
X-26840Y-168234D01*
X-25908Y-167302D01*
X-25908Y-165438D01*
X-26840Y-164506D01*
X-27772Y-164506D01*
X-28704Y-165438D01*
X-28704Y-168234D01*
D14*
X-11000Y-157000D02*
X-11000Y-152400D01*
X-11000Y-147800D01*
X-11000Y-152400D02*
X-14100Y-154738D01*
X-11154Y-152146D02*
X-14100Y-150216D01*
D13*
X-25908Y-157972D02*
X-31501Y-157972D01*
X-25908Y-157972D02*
X-25908Y-155176D01*
X-26840Y-154244D01*
X-30569Y-154244D01*
X-31501Y-155176D01*
X-31501Y-157972D01*
X-30569Y-152359D02*
X-31501Y-151427D01*
X-31501Y-149563D01*
X-30569Y-148631D01*
X-29637Y-148631D01*
X-28704Y-149563D01*
X-28704Y-150495D01*
X-28704Y-149563D02*
X-27772Y-148631D01*
X-26840Y-148631D01*
X-25908Y-149563D01*
X-25908Y-151427D01*
X-26840Y-152359D01*
D12*
X-12700Y-133350D03*
D13*
X-27813Y-138607D02*
X-33406Y-138607D01*
X-33406Y-135811D01*
X-32474Y-134879D01*
X-30609Y-134879D01*
X-29677Y-135811D01*
X-29677Y-138607D01*
X-29677Y-136743D02*
X-27813Y-134879D01*
X-27813Y-130198D02*
X-33406Y-130198D01*
X-30609Y-132994D01*
X-30609Y-129266D01*
D14*
X-49100Y-133350D02*
X-49100Y-137950D01*
X-49100Y-133350D02*
X-49100Y-128750D01*
X-49100Y-133350D02*
X-52200Y-135688D01*
X-49254Y-133096D02*
X-52200Y-131166D01*
D13*
X-64389Y-138811D02*
X-69982Y-138811D01*
X-64389Y-138811D02*
X-64389Y-136015D01*
X-65321Y-135083D01*
X-69050Y-135083D01*
X-69982Y-136015D01*
X-69982Y-138811D01*
X-68118Y-133198D02*
X-69982Y-131334D01*
X-64389Y-131334D01*
X-64389Y-133198D02*
X-64389Y-129469D01*
D14*
X-74549Y30631D02*
X-74549Y39219D01*
X-46101Y39219D02*
X-46101Y30631D01*
X-57641Y26821D02*
X-63009Y26821D01*
D13*
X-41661Y29668D02*
X-37000Y29668D01*
X-36068Y30600D01*
X-36068Y32464D01*
X-37000Y33396D01*
X-41661Y33396D01*
X-39797Y35281D02*
X-41661Y37145D01*
X-36068Y37145D01*
X-36068Y35281D02*
X-36068Y39009D01*
D15*
X-76200Y177495D02*
X-76200Y178105D01*
D13*
X-108039Y176906D02*
X-108971Y175974D01*
X-108971Y174110D01*
X-108039Y173178D01*
X-104310Y173178D01*
X-103378Y174110D01*
X-103378Y175974D01*
X-104310Y176906D01*
X-108971Y178791D02*
X-108971Y182519D01*
X-108039Y182519D01*
X-104310Y178791D01*
X-103378Y178791D01*
D15*
X-53975Y-6045D02*
X-53975Y-6655D01*
D13*
X-26802Y-6475D02*
X-25870Y-5543D01*
X-26802Y-6475D02*
X-26802Y-8339D01*
X-25870Y-9271D01*
X-22141Y-9271D01*
X-21209Y-8339D01*
X-21209Y-6475D01*
X-22141Y-5543D01*
X-25870Y-3658D02*
X-26802Y-2726D01*
X-26802Y-862D01*
X-25870Y71D01*
X-24938Y71D01*
X-24005Y-862D01*
X-23073Y71D01*
X-22141Y71D01*
X-21209Y-862D01*
X-21209Y-2726D01*
X-22141Y-3658D01*
X-23073Y-3658D01*
X-24005Y-2726D01*
X-24938Y-3658D01*
X-25870Y-3658D01*
X-24005Y-2726D02*
X-24005Y-862D01*
D11*
X-68580Y102235D02*
X-83820Y102235D01*
X-83820Y161925D02*
X-68580Y161925D01*
D13*
X-39606Y148253D02*
X-34013Y148253D01*
X-34013Y151981D01*
X-37742Y153866D02*
X-39606Y155730D01*
X-34013Y155730D01*
X-34013Y153866D02*
X-34013Y157594D01*
D14*
X-50025Y66200D02*
X-50025Y61700D01*
X-96025Y61700D01*
X-96025Y66200D01*
X-96025Y86200D02*
X-96025Y90700D01*
X-50025Y90700D01*
X-50025Y86200D01*
X-104775Y86200D02*
X-104775Y66200D01*
D13*
X-110998Y70841D02*
X-116591Y70841D01*
X-110998Y70841D02*
X-110998Y73637D01*
X-111930Y74569D01*
X-115659Y74569D01*
X-116591Y73637D01*
X-116591Y70841D01*
X-116591Y79250D02*
X-110998Y79250D01*
X-113794Y76454D02*
X-116591Y79250D01*
X-113794Y80182D02*
X-113794Y76454D01*
D11*
X-101250Y41100D02*
X-101250Y35100D01*
X-89250Y35100D02*
X-89250Y41100D01*
D13*
X-98602Y52578D02*
X-98602Y58171D01*
X-95806Y58171D01*
X-94874Y57239D01*
X-94874Y55374D01*
X-95806Y54442D01*
X-98602Y54442D01*
X-96738Y54442D02*
X-94874Y52578D01*
X-92989Y56307D02*
X-91125Y58171D01*
X-91125Y52578D01*
X-92989Y52578D02*
X-89261Y52578D01*
D14*
X90800Y-237575D02*
X90800Y-272575D01*
X90800Y-237575D02*
X82800Y-237575D01*
X82800Y-262575D01*
X70800Y-262575D01*
X30800Y-262575D02*
X18800Y-262575D01*
X18800Y-237575D01*
X10800Y-237575D01*
X10800Y-272575D01*
X30800Y-312575D02*
X70800Y-312575D01*
D13*
X4572Y-314560D02*
X-1021Y-314560D01*
X-1021Y-311764D01*
X-89Y-310831D01*
X1776Y-310831D01*
X2708Y-311764D01*
X2708Y-314560D01*
X-1021Y-308015D02*
X-1021Y-306150D01*
X-1021Y-308015D02*
X-89Y-308947D01*
X3640Y-308947D01*
X4572Y-308015D01*
X4572Y-306150D01*
X3640Y-305218D01*
X-89Y-305218D01*
X-1021Y-306150D01*
X-1021Y-303334D02*
X4572Y-303334D01*
X2708Y-301469D01*
X4572Y-299605D01*
X-1021Y-299605D01*
X-1021Y-297721D02*
X-1021Y-293992D01*
X-1021Y-297721D02*
X4572Y-297721D01*
X4572Y-293992D01*
X1776Y-295856D02*
X1776Y-297721D01*
X4572Y-292108D02*
X-1021Y-292108D01*
X-1021Y-289311D01*
X-89Y-288379D01*
X1776Y-288379D01*
X2708Y-289311D01*
X2708Y-292108D01*
X2708Y-290243D02*
X4572Y-288379D01*
X5504Y-286494D02*
X5504Y-282766D01*
X4572Y-280881D02*
X4572Y-279017D01*
X4572Y-279949D02*
X-1021Y-279949D01*
X-1021Y-280881D02*
X-1021Y-279017D01*
X-1021Y-277139D02*
X4572Y-277139D01*
X4572Y-273411D02*
X-1021Y-277139D01*
X-1021Y-273411D02*
X4572Y-273411D01*
D14*
X111125Y-269875D02*
X136225Y-269875D01*
X98425Y-259875D02*
X98425Y-229075D01*
X111425Y-219075D02*
X136225Y-219075D01*
X149225Y-229075D02*
X149225Y-259875D01*
X111125Y-244475D02*
X111129Y-244163D01*
X111140Y-243852D01*
X111159Y-243541D01*
X111186Y-243230D01*
X111221Y-242920D01*
X111262Y-242612D01*
X111312Y-242304D01*
X111369Y-241997D01*
X111434Y-241692D01*
X111506Y-241389D01*
X111585Y-241088D01*
X111672Y-240788D01*
X111766Y-240491D01*
X111867Y-240196D01*
X111976Y-239904D01*
X112092Y-239615D01*
X112215Y-239328D01*
X112344Y-239045D01*
X112481Y-238765D01*
X112625Y-238488D01*
X112775Y-238215D01*
X112932Y-237946D01*
X113095Y-237681D01*
X113265Y-237419D01*
X113442Y-237162D01*
X113624Y-236910D01*
X113813Y-236662D01*
X114008Y-236418D01*
X114208Y-236180D01*
X114415Y-235946D01*
X114627Y-235718D01*
X114845Y-235495D01*
X115068Y-235277D01*
X115296Y-235065D01*
X115530Y-234858D01*
X115768Y-234658D01*
X116012Y-234463D01*
X116260Y-234274D01*
X116512Y-234092D01*
X116769Y-233915D01*
X117031Y-233745D01*
X117296Y-233582D01*
X117565Y-233425D01*
X117838Y-233275D01*
X118115Y-233131D01*
X118395Y-232994D01*
X118678Y-232865D01*
X118965Y-232742D01*
X119254Y-232626D01*
X119546Y-232517D01*
X119841Y-232416D01*
X120138Y-232322D01*
X120438Y-232235D01*
X120739Y-232156D01*
X121042Y-232084D01*
X121347Y-232019D01*
X121654Y-231962D01*
X121962Y-231912D01*
X122270Y-231871D01*
X122580Y-231836D01*
X122891Y-231809D01*
X123202Y-231790D01*
X123513Y-231779D01*
X123825Y-231775D01*
X124137Y-231779D01*
X124448Y-231790D01*
X124759Y-231809D01*
X125070Y-231836D01*
X125380Y-231871D01*
X125688Y-231912D01*
X125996Y-231962D01*
X126303Y-232019D01*
X126608Y-232084D01*
X126911Y-232156D01*
X127212Y-232235D01*
X127512Y-232322D01*
X127809Y-232416D01*
X128104Y-232517D01*
X128396Y-232626D01*
X128685Y-232742D01*
X128972Y-232865D01*
X129255Y-232994D01*
X129535Y-233131D01*
X129812Y-233275D01*
X130085Y-233425D01*
X130354Y-233582D01*
X130619Y-233745D01*
X130881Y-233915D01*
X131138Y-234092D01*
X131390Y-234274D01*
X131638Y-234463D01*
X131882Y-234658D01*
X132120Y-234858D01*
X132354Y-235065D01*
X132582Y-235277D01*
X132805Y-235495D01*
X133023Y-235718D01*
X133235Y-235946D01*
X133442Y-236180D01*
X133642Y-236418D01*
X133837Y-236662D01*
X134026Y-236910D01*
X134208Y-237162D01*
X134385Y-237419D01*
X134555Y-237681D01*
X134718Y-237946D01*
X134875Y-238215D01*
X135025Y-238488D01*
X135169Y-238765D01*
X135306Y-239045D01*
X135435Y-239328D01*
X135558Y-239615D01*
X135674Y-239904D01*
X135783Y-240196D01*
X135884Y-240491D01*
X135978Y-240788D01*
X136065Y-241088D01*
X136144Y-241389D01*
X136216Y-241692D01*
X136281Y-241997D01*
X136338Y-242304D01*
X136388Y-242612D01*
X136429Y-242920D01*
X136464Y-243230D01*
X136491Y-243541D01*
X136510Y-243852D01*
X136521Y-244163D01*
X136525Y-244475D01*
X136521Y-244787D01*
X136510Y-245098D01*
X136491Y-245409D01*
X136464Y-245720D01*
X136429Y-246030D01*
X136388Y-246338D01*
X136338Y-246646D01*
X136281Y-246953D01*
X136216Y-247258D01*
X136144Y-247561D01*
X136065Y-247862D01*
X135978Y-248162D01*
X135884Y-248459D01*
X135783Y-248754D01*
X135674Y-249046D01*
X135558Y-249335D01*
X135435Y-249622D01*
X135306Y-249905D01*
X135169Y-250185D01*
X135025Y-250462D01*
X134875Y-250735D01*
X134718Y-251004D01*
X134555Y-251269D01*
X134385Y-251531D01*
X134208Y-251788D01*
X134026Y-252040D01*
X133837Y-252288D01*
X133642Y-252532D01*
X133442Y-252770D01*
X133235Y-253004D01*
X133023Y-253232D01*
X132805Y-253455D01*
X132582Y-253673D01*
X132354Y-253885D01*
X132120Y-254092D01*
X131882Y-254292D01*
X131638Y-254487D01*
X131390Y-254676D01*
X131138Y-254858D01*
X130881Y-255035D01*
X130619Y-255205D01*
X130354Y-255368D01*
X130085Y-255525D01*
X129812Y-255675D01*
X129535Y-255819D01*
X129255Y-255956D01*
X128972Y-256085D01*
X128685Y-256208D01*
X128396Y-256324D01*
X128104Y-256433D01*
X127809Y-256534D01*
X127512Y-256628D01*
X127212Y-256715D01*
X126911Y-256794D01*
X126608Y-256866D01*
X126303Y-256931D01*
X125996Y-256988D01*
X125688Y-257038D01*
X125380Y-257079D01*
X125070Y-257114D01*
X124759Y-257141D01*
X124448Y-257160D01*
X124137Y-257171D01*
X123825Y-257175D01*
X123513Y-257171D01*
X123202Y-257160D01*
X122891Y-257141D01*
X122580Y-257114D01*
X122270Y-257079D01*
X121962Y-257038D01*
X121654Y-256988D01*
X121347Y-256931D01*
X121042Y-256866D01*
X120739Y-256794D01*
X120438Y-256715D01*
X120138Y-256628D01*
X119841Y-256534D01*
X119546Y-256433D01*
X119254Y-256324D01*
X118965Y-256208D01*
X118678Y-256085D01*
X118395Y-255956D01*
X118115Y-255819D01*
X117838Y-255675D01*
X117565Y-255525D01*
X117296Y-255368D01*
X117031Y-255205D01*
X116769Y-255035D01*
X116512Y-254858D01*
X116260Y-254676D01*
X116012Y-254487D01*
X115768Y-254292D01*
X115530Y-254092D01*
X115296Y-253885D01*
X115068Y-253673D01*
X114845Y-253455D01*
X114627Y-253232D01*
X114415Y-253004D01*
X114208Y-252770D01*
X114008Y-252532D01*
X113813Y-252288D01*
X113624Y-252040D01*
X113442Y-251788D01*
X113265Y-251531D01*
X113095Y-251269D01*
X112932Y-251004D01*
X112775Y-250735D01*
X112625Y-250462D01*
X112481Y-250185D01*
X112344Y-249905D01*
X112215Y-249622D01*
X112092Y-249335D01*
X111976Y-249046D01*
X111867Y-248754D01*
X111766Y-248459D01*
X111672Y-248162D01*
X111585Y-247862D01*
X111506Y-247561D01*
X111434Y-247258D01*
X111369Y-246953D01*
X111312Y-246646D01*
X111262Y-246338D01*
X111221Y-246030D01*
X111186Y-245720D01*
X111159Y-245409D01*
X111140Y-245098D01*
X111129Y-244787D01*
X111125Y-244475D01*
D13*
X92240Y-246106D02*
X91308Y-247038D01*
X91308Y-248902D01*
X92240Y-249834D01*
X93173Y-249834D01*
X94105Y-248902D01*
X94105Y-247038D01*
X95037Y-246106D01*
X95969Y-246106D01*
X96901Y-247038D01*
X96901Y-248902D01*
X95969Y-249834D01*
X93173Y-244221D02*
X91308Y-242357D01*
X96901Y-242357D01*
X96901Y-244221D02*
X96901Y-240493D01*
D12*
X47625Y-193675D03*
D13*
X31496Y-198501D02*
X25903Y-198501D01*
X25903Y-195705D01*
X26835Y-194773D01*
X28700Y-194773D01*
X29632Y-195705D01*
X29632Y-198501D01*
X29632Y-196637D02*
X31496Y-194773D01*
X26835Y-192888D02*
X25903Y-191956D01*
X25903Y-190092D01*
X26835Y-189159D01*
X27768Y-189159D01*
X28700Y-190092D01*
X29632Y-189159D01*
X30564Y-189159D01*
X31496Y-190092D01*
X31496Y-191956D01*
X30564Y-192888D01*
X29632Y-192888D01*
X28700Y-191956D01*
X27768Y-192888D01*
X26835Y-192888D01*
X28700Y-191956D02*
X28700Y-190092D01*
D16*
X79343Y-200279D02*
X79343Y-130175D01*
X151375Y-130175D01*
X151375Y-100175D01*
X199259Y-100175D01*
X199375Y-200279D02*
X79343Y-200279D01*
X199375Y-200279D02*
X199259Y-100175D01*
D14*
X11176Y30631D02*
X11176Y39219D01*
X39624Y39219D02*
X39624Y30631D01*
X28084Y26821D02*
X22716Y26821D01*
D13*
X44064Y29668D02*
X48725Y29668D01*
X49657Y30600D01*
X49657Y32464D01*
X48725Y33396D01*
X44064Y33396D01*
X44064Y35281D02*
X44064Y39009D01*
X44064Y35281D02*
X46861Y35281D01*
X45929Y37145D01*
X45929Y38077D01*
X46861Y39009D01*
X48725Y39009D01*
X49657Y38077D01*
X49657Y36213D01*
X48725Y35281D01*
D15*
X6350Y177495D02*
X6350Y178105D01*
D13*
X-25489Y176906D02*
X-26421Y175974D01*
X-26421Y174110D01*
X-25489Y173178D01*
X-21760Y173178D01*
X-20828Y174110D01*
X-20828Y175974D01*
X-21760Y176906D01*
X-20828Y178791D02*
X-20828Y182519D01*
X-20828Y178791D02*
X-24557Y182519D01*
X-25489Y182519D01*
X-26421Y181587D01*
X-26421Y179723D01*
X-25489Y178791D01*
D15*
X15875Y305D02*
X15875Y-305D01*
D13*
X-15964Y-4069D02*
X-16896Y-5001D01*
X-16896Y-6865D01*
X-15964Y-7797D01*
X-12235Y-7797D01*
X-11303Y-6865D01*
X-11303Y-5001D01*
X-12235Y-4069D01*
X-11303Y612D02*
X-16896Y612D01*
X-14099Y-2184D01*
X-14099Y1544D01*
D11*
X1905Y102235D02*
X17145Y102235D01*
X17145Y161925D02*
X1905Y161925D01*
D13*
X-25758Y148253D02*
X-31351Y148253D01*
X-25758Y148253D02*
X-25758Y151981D01*
X-25758Y153866D02*
X-25758Y157594D01*
X-25758Y153866D02*
X-29487Y157594D01*
X-30419Y157594D01*
X-31351Y156662D01*
X-31351Y154798D01*
X-30419Y153866D01*
D14*
X35700Y66200D02*
X35700Y61700D01*
X-10300Y61700D01*
X-10300Y66200D01*
X-10300Y86200D02*
X-10300Y90700D01*
X35700Y90700D01*
X35700Y86200D01*
X-19050Y86200D02*
X-19050Y66200D01*
D13*
X-25273Y70841D02*
X-30866Y70841D01*
X-25273Y70841D02*
X-25273Y73637D01*
X-26205Y74569D01*
X-29934Y74569D01*
X-30866Y73637D01*
X-30866Y70841D01*
X-30866Y76454D02*
X-30866Y80182D01*
X-30866Y76454D02*
X-28069Y76454D01*
X-29002Y78318D01*
X-29002Y79250D01*
X-28069Y80182D01*
X-26205Y80182D01*
X-25273Y79250D01*
X-25273Y77386D01*
X-26205Y76454D01*
D11*
X-15525Y41100D02*
X-15525Y35100D01*
X-3525Y35100D02*
X-3525Y41100D01*
D13*
X-16052Y52578D02*
X-16052Y58171D01*
X-13256Y58171D01*
X-12324Y57239D01*
X-12324Y55374D01*
X-13256Y54442D01*
X-16052Y54442D01*
X-14188Y54442D02*
X-12324Y52578D01*
X-10439Y57239D02*
X-9507Y58171D01*
X-7643Y58171D01*
X-6711Y57239D01*
X-6711Y56307D01*
X-7643Y55374D01*
X-8575Y55374D01*
X-7643Y55374D02*
X-6711Y54442D01*
X-6711Y53510D01*
X-7643Y52578D01*
X-9507Y52578D01*
X-10439Y53510D01*
D14*
X103251Y39219D02*
X103251Y30631D01*
X131699Y30631D02*
X131699Y39219D01*
X120159Y26821D02*
X114791Y26821D01*
D13*
X136139Y29668D02*
X140800Y29668D01*
X141732Y30600D01*
X141732Y32464D01*
X140800Y33396D01*
X136139Y33396D01*
X137071Y37145D02*
X136139Y39009D01*
X137071Y37145D02*
X138936Y35281D01*
X140800Y35281D01*
X141732Y36213D01*
X141732Y38077D01*
X140800Y39009D01*
X139868Y39009D01*
X138936Y38077D01*
X138936Y35281D01*
D15*
X101600Y177495D02*
X101600Y178105D01*
D13*
X69761Y176906D02*
X68829Y175974D01*
X68829Y174110D01*
X69761Y173178D01*
X73490Y173178D01*
X74422Y174110D01*
X74422Y175974D01*
X73490Y176906D01*
X68829Y178791D02*
X68829Y182519D01*
X68829Y178791D02*
X71626Y178791D01*
X70694Y180655D01*
X70694Y181587D01*
X71626Y182519D01*
X73490Y182519D01*
X74422Y181587D01*
X74422Y179723D01*
X73490Y178791D01*
D15*
X104775Y305D02*
X104775Y-305D01*
D13*
X72936Y-6507D02*
X72004Y-7439D01*
X72004Y-9303D01*
X72936Y-10235D01*
X76665Y-10235D01*
X77597Y-9303D01*
X77597Y-7439D01*
X76665Y-6507D01*
X73869Y-4622D02*
X72004Y-2758D01*
X77597Y-2758D01*
X77597Y-4622D02*
X77597Y-894D01*
X77597Y3787D02*
X72004Y3787D01*
X74801Y991D01*
X74801Y4719D01*
D11*
X93980Y102235D02*
X109220Y102235D01*
X109220Y161925D02*
X93980Y161925D01*
D13*
X63142Y132378D02*
X57549Y132378D01*
X63142Y132378D02*
X63142Y136106D01*
X58481Y137991D02*
X57549Y138923D01*
X57549Y140787D01*
X58481Y141719D01*
X59414Y141719D01*
X60346Y140787D01*
X60346Y139855D01*
X60346Y140787D02*
X61278Y141719D01*
X62210Y141719D01*
X63142Y140787D01*
X63142Y138923D01*
X62210Y137991D01*
D14*
X127775Y66200D02*
X127775Y61700D01*
X81775Y61700D01*
X81775Y66200D01*
X81775Y86200D02*
X81775Y90700D01*
X127775Y90700D01*
X127775Y86200D01*
X73025Y86200D02*
X73025Y66200D01*
D13*
X66802Y70841D02*
X61209Y70841D01*
X66802Y70841D02*
X66802Y73637D01*
X65870Y74569D01*
X62141Y74569D01*
X61209Y73637D01*
X61209Y70841D01*
X62141Y78318D02*
X61209Y80182D01*
X62141Y78318D02*
X64006Y76454D01*
X65870Y76454D01*
X66802Y77386D01*
X66802Y79250D01*
X65870Y80182D01*
X64938Y80182D01*
X64006Y79250D01*
X64006Y76454D01*
D11*
X76550Y41100D02*
X76550Y35100D01*
X88550Y35100D02*
X88550Y41100D01*
D13*
X79198Y52578D02*
X79198Y58171D01*
X81994Y58171D01*
X82926Y57239D01*
X82926Y55374D01*
X81994Y54442D01*
X79198Y54442D01*
X81062Y54442D02*
X82926Y52578D01*
X84811Y53510D02*
X85743Y52578D01*
X87607Y52578D01*
X88539Y53510D01*
X88539Y57239D01*
X87607Y58171D01*
X85743Y58171D01*
X84811Y57239D01*
X84811Y56307D01*
X85743Y55374D01*
X88539Y55374D01*
D14*
X-4500Y-254925D02*
X-144500Y-254925D01*
X-4500Y-254925D02*
X-4500Y-316925D01*
X-4500Y-324925D01*
X-144500Y-324925D01*
X-144500Y-316925D01*
X-144500Y-254925D01*
X-144500Y-316925D02*
X-4500Y-316925D01*
D13*
X-138514Y-268351D02*
X-139446Y-267419D01*
X-138514Y-268351D02*
X-137582Y-268351D01*
X-136650Y-267419D01*
X-136650Y-262758D01*
X-137582Y-262758D02*
X-135718Y-262758D01*
X-131969Y-263690D02*
X-130104Y-262758D01*
X-131969Y-263690D02*
X-133833Y-265555D01*
X-133833Y-267419D01*
X-132901Y-268351D01*
X-131037Y-268351D01*
X-130104Y-267419D01*
X-130104Y-266487D01*
X-131037Y-265555D01*
X-133833Y-265555D01*
D12*
X85725Y-104775D03*
D13*
X77089Y-96901D02*
X77089Y-91308D01*
X79885Y-91308D01*
X80818Y-92240D01*
X80818Y-94105D01*
X79885Y-95037D01*
X77089Y-95037D01*
X78953Y-95037D02*
X80818Y-96901D01*
X82702Y-93173D02*
X84566Y-91308D01*
X84566Y-96901D01*
X82702Y-96901D02*
X86431Y-96901D01*
X88315Y-95969D02*
X88315Y-92240D01*
X89247Y-91308D01*
X91112Y-91308D01*
X92044Y-92240D01*
X92044Y-95969D01*
X91112Y-96901D01*
X89247Y-96901D01*
X88315Y-95969D01*
X92044Y-92240D01*
D14*
X144780Y-79375D02*
X179070Y-79375D01*
X144780Y-79375D02*
X144780Y-77851D01*
X144780Y-17399D02*
X144780Y-15875D01*
X179070Y-15875D01*
X179070Y-17399D01*
X179070Y-77851D02*
X179070Y-79375D01*
X144780Y-68199D02*
X144780Y-65151D01*
X144780Y-55499D02*
X144780Y-52451D01*
X144780Y-42799D02*
X144780Y-39751D01*
X144780Y-30099D02*
X144780Y-27051D01*
X179070Y-27051D02*
X179070Y-30099D01*
X179070Y-39751D02*
X179070Y-42799D01*
X179070Y-52451D02*
X179070Y-55499D01*
X179070Y-65151D02*
X179070Y-68199D01*
D13*
X181222Y-10414D02*
X180290Y-9482D01*
X181222Y-10414D02*
X182154Y-10414D01*
X183086Y-9482D01*
X183086Y-4821D01*
X182154Y-4821D02*
X184018Y-4821D01*
X185903Y-4821D02*
X189631Y-4821D01*
X189631Y-5753D01*
X185903Y-9482D01*
X185903Y-10414D01*
D14*
X26925Y-132700D02*
X20925Y-132700D01*
X20925Y-140700D01*
X42925Y-132700D02*
X48925Y-132700D01*
X48925Y-140700D01*
D13*
X42799Y-127084D02*
X42799Y-123355D01*
X43731Y-122423D01*
X45595Y-122423D01*
X46528Y-123355D01*
X46528Y-127084D01*
X45595Y-128016D01*
X43731Y-128016D01*
X42799Y-127084D01*
X44663Y-126152D02*
X46528Y-128016D01*
X48412Y-124288D02*
X50276Y-122423D01*
X50276Y-128016D01*
X48412Y-128016D02*
X52141Y-128016D01*
D12*
X34925Y-168275D03*
D13*
X17526Y-173736D02*
X11933Y-173736D01*
X11933Y-170940D01*
X12865Y-170008D01*
X14730Y-170008D01*
X15662Y-170940D01*
X15662Y-173736D01*
X15662Y-171872D02*
X17526Y-170008D01*
X17526Y-168123D02*
X17526Y-164394D01*
X13798Y-164394D02*
X17526Y-168123D01*
X13798Y-164394D02*
X12865Y-164394D01*
X11933Y-165327D01*
X11933Y-167191D01*
X12865Y-168123D01*
D12*
X-22225Y-47625D03*
D13*
X-30861Y-39751D02*
X-30861Y-34158D01*
X-28065Y-34158D01*
X-27133Y-35090D01*
X-27133Y-36955D01*
X-28065Y-37887D01*
X-30861Y-37887D01*
X-28997Y-37887D02*
X-27133Y-39751D01*
X-25248Y-36023D02*
X-23384Y-34158D01*
X-23384Y-39751D01*
X-25248Y-39751D02*
X-21519Y-39751D01*
X-19635Y-39751D02*
X-15906Y-39751D01*
X-15906Y-36023D02*
X-19635Y-39751D01*
X-15906Y-36023D02*
X-15906Y-35090D01*
X-16838Y-34158D01*
X-18703Y-34158D01*
X-19635Y-35090D01*
D15*
X104775Y-25705D02*
X104775Y-25095D01*
D13*
X99868Y-12865D02*
X98935Y-11933D01*
X97071Y-11933D01*
X96139Y-12865D01*
X96139Y-16594D01*
X97071Y-17526D01*
X98935Y-17526D01*
X99868Y-16594D01*
X101752Y-16594D02*
X102684Y-17526D01*
X104548Y-17526D01*
X105481Y-16594D01*
X105481Y-12865D01*
X104548Y-11933D01*
X102684Y-11933D01*
X101752Y-12865D01*
X101752Y-13798D01*
X102684Y-14730D01*
X105481Y-14730D01*
D14*
X12225Y-62800D02*
X-2775Y-62800D01*
X-2775Y-38800D01*
X12225Y-38800D01*
X32225Y-62800D02*
X43225Y-62800D01*
X47225Y-58800D01*
X47225Y-42800D01*
X43225Y-38800D01*
X32225Y-38800D01*
D17*
X26035Y-40640D02*
X26035Y-60960D01*
D13*
X808Y-32075D02*
X-125Y-31143D01*
X-1989Y-31143D01*
X-2921Y-32075D01*
X-2921Y-35804D01*
X-1989Y-36736D01*
X-125Y-36736D01*
X808Y-35804D01*
X2692Y-33008D02*
X4556Y-31143D01*
X4556Y-36736D01*
X2692Y-36736D02*
X6421Y-36736D01*
X8305Y-33008D02*
X10169Y-31143D01*
X10169Y-36736D01*
X8305Y-36736D02*
X12034Y-36736D01*
D14*
X9525Y-87781D02*
X9525Y-96369D01*
X34925Y-96369D02*
X34925Y-87781D01*
X24909Y-99163D02*
X19541Y-99163D01*
D18*
X38227Y-81915D03*
D13*
X15698Y-103437D02*
X15698Y-108097D01*
X16630Y-109030D01*
X18494Y-109030D01*
X19426Y-108097D01*
X19426Y-103437D01*
X24107Y-103437D02*
X24107Y-109030D01*
X21311Y-106233D02*
X24107Y-103437D01*
X25039Y-106233D02*
X21311Y-106233D01*
X-143599Y-150487D02*
X-144531Y-151419D01*
X-144531Y-153284D01*
X-143599Y-154216D01*
X-139870Y-154216D01*
X-138938Y-153284D01*
X-138938Y-151419D01*
X-139870Y-150487D01*
X-142667Y-148603D02*
X-144531Y-146738D01*
X-138938Y-146738D01*
X-138938Y-144874D02*
X-138938Y-148603D01*
X-139870Y-142990D02*
X-143599Y-142990D01*
X-144531Y-142057D01*
X-144531Y-140193D01*
X-143599Y-139261D01*
X-139870Y-139261D01*
X-138938Y-140193D01*
X-138938Y-142057D01*
X-139870Y-142990D01*
X-143599Y-139261D01*
X-32517Y-230794D02*
X-31585Y-229862D01*
X-32517Y-230794D02*
X-32517Y-232659D01*
X-31585Y-233591D01*
X-27856Y-233591D01*
X-26924Y-232659D01*
X-26924Y-230794D01*
X-27856Y-229862D01*
X-30653Y-227978D02*
X-32517Y-226113D01*
X-26924Y-226113D01*
X-26924Y-224249D02*
X-26924Y-227978D01*
X-26924Y-222364D02*
X-26924Y-218636D01*
X-26924Y-222364D02*
X-30653Y-218636D01*
X-31585Y-218636D01*
X-32517Y-219568D01*
X-32517Y-221432D01*
X-31585Y-222364D01*
D17*
X-107950Y-103188D02*
X-107950Y-93663D01*
D13*
X-111633Y-103784D02*
X-117226Y-103784D01*
X-111633Y-103784D02*
X-111633Y-100988D01*
X-112565Y-100056D01*
X-116294Y-100056D01*
X-117226Y-100988D01*
X-117226Y-103784D01*
X-111633Y-98171D02*
X-111633Y-94443D01*
X-111633Y-98171D02*
X-115362Y-94443D01*
X-116294Y-94443D01*
X-117226Y-95375D01*
X-117226Y-97239D01*
X-116294Y-98171D01*
X-84206Y-126009D02*
X-78613Y-126009D01*
X-84206Y-126009D02*
X-84206Y-123213D01*
X-83274Y-122281D01*
X-81409Y-122281D01*
X-80477Y-123213D01*
X-80477Y-126009D01*
X-80477Y-124145D02*
X-78613Y-122281D01*
X-84206Y-120396D02*
X-84206Y-116668D01*
X-84206Y-120396D02*
X-81409Y-120396D01*
X-82342Y-118532D01*
X-82342Y-117600D01*
X-81409Y-116668D01*
X-79545Y-116668D01*
X-78613Y-117600D01*
X-78613Y-119464D01*
X-79545Y-120396D01*
X-10604Y-183383D02*
X-10604Y-188976D01*
X-10604Y-183383D02*
X-7807Y-183383D01*
X-6875Y-184315D01*
X-6875Y-186180D01*
X-7807Y-187112D01*
X-10604Y-187112D01*
X-8740Y-187112D02*
X-6875Y-188976D01*
X-4991Y-188976D02*
X-4991Y-183383D01*
X-2194Y-183383D01*
X-1262Y-184315D01*
X-1262Y-186180D01*
X-2194Y-187112D01*
X-4991Y-187112D01*
X622Y-188976D02*
X622Y-183383D01*
X3419Y-183383D01*
X4351Y-184315D01*
X4351Y-186180D01*
X3419Y-187112D01*
X622Y-187112D01*
X2487Y-187112D02*
X4351Y-188976D01*
X7168Y-183383D02*
X9032Y-183383D01*
X7168Y-183383D02*
X6236Y-184315D01*
X6236Y-188044D01*
X7168Y-188976D01*
X9032Y-188976D01*
X9964Y-188044D01*
X9964Y-184315D01*
X9032Y-183383D01*
X14645Y-183383D02*
X15577Y-184315D01*
X14645Y-183383D02*
X12781Y-183383D01*
X11849Y-184315D01*
X11849Y-188044D01*
X12781Y-188976D01*
X14645Y-188976D01*
X15577Y-188044D01*
X15577Y-186180D01*
X13713Y-186180D01*
D14*
X-107950Y-183031D02*
X-107950Y-191619D01*
X-133350Y-191619D02*
X-133350Y-183031D01*
X-123334Y-180237D02*
X-117966Y-180237D01*
D18*
X-136652Y-197485D03*
D13*
X-129286Y-164549D02*
X-129286Y-159888D01*
X-129286Y-164549D02*
X-128354Y-165481D01*
X-126490Y-165481D01*
X-125558Y-164549D01*
X-125558Y-159888D01*
X-123673Y-165481D02*
X-119944Y-165481D01*
X-119944Y-161753D02*
X-123673Y-165481D01*
X-119944Y-161753D02*
X-119944Y-160820D01*
X-120877Y-159888D01*
X-122741Y-159888D01*
X-123673Y-160820D01*
X-161569Y38926D02*
X-161569Y44518D01*
X-158773Y44518D01*
X-157841Y43586D01*
X-157841Y41722D01*
X-158773Y40790D01*
X-161569Y40790D01*
X-159705Y40790D02*
X-157841Y38926D01*
X-155956Y44518D02*
X-152228Y44518D01*
X-152228Y43586D01*
X-155956Y39858D01*
X-155956Y38926D01*
X-145961Y38989D02*
X-145961Y44582D01*
X-143164Y44582D01*
X-142232Y43650D01*
X-142232Y41785D01*
X-143164Y40853D01*
X-145961Y40853D01*
X-144096Y40853D02*
X-142232Y38989D01*
X-140348Y42718D02*
X-138483Y44582D01*
X-138483Y38989D01*
X-136619Y38989D02*
X-140348Y38989D01*
X-134734Y43650D02*
X-133802Y44582D01*
X-131938Y44582D01*
X-131006Y43650D01*
X-131006Y42718D01*
X-131938Y41785D01*
X-132870Y41785D01*
X-131938Y41785D02*
X-131006Y40853D01*
X-131006Y39921D01*
X-131938Y38989D01*
X-133802Y38989D01*
X-134734Y39921D01*
D14*
X-142100Y236325D02*
X-142100Y240825D01*
X-142100Y236325D02*
X-188100Y236325D01*
X-188100Y240825D01*
X-188100Y260825D02*
X-188100Y265325D01*
X-142100Y265325D01*
X-142100Y260825D01*
X-196850Y260825D02*
X-196850Y240825D01*
D13*
X-169507Y267526D02*
X-169507Y273118D01*
X-169507Y267526D02*
X-166710Y267526D01*
X-165778Y268458D01*
X-165778Y272186D01*
X-166710Y273118D01*
X-169507Y273118D01*
X-163894Y273118D02*
X-160165Y273118D01*
X-160165Y272186D01*
X-163894Y268458D01*
X-163894Y267526D01*
D14*
X-142100Y202725D02*
X-142100Y198225D01*
X-188100Y198225D01*
X-188100Y202725D01*
X-188100Y222725D02*
X-188100Y227225D01*
X-142100Y227225D01*
X-142100Y222725D01*
X-196850Y222725D02*
X-196850Y202725D01*
D13*
X-170459Y228473D02*
X-170459Y234066D01*
X-170459Y228473D02*
X-167663Y228473D01*
X-166731Y229405D01*
X-166731Y233134D01*
X-167663Y234066D01*
X-170459Y234066D01*
X-164846Y233134D02*
X-163914Y234066D01*
X-162050Y234066D01*
X-161118Y233134D01*
X-161118Y232202D01*
X-162050Y231269D01*
X-161118Y230337D01*
X-161118Y229405D01*
X-162050Y228473D01*
X-163914Y228473D01*
X-164846Y229405D01*
X-164846Y230337D01*
X-163914Y231269D01*
X-164846Y232202D01*
X-164846Y233134D01*
X-163914Y231269D02*
X-162050Y231269D01*
D17*
X92075Y-74613D02*
X92075Y-84138D01*
D13*
X60071Y-84734D02*
X54478Y-84734D01*
X60071Y-84734D02*
X60071Y-81938D01*
X59139Y-81006D01*
X55410Y-81006D01*
X54478Y-81938D01*
X54478Y-84734D01*
X59139Y-79121D02*
X60071Y-78189D01*
X60071Y-76325D01*
X59139Y-75393D01*
X55410Y-75393D01*
X54478Y-76325D01*
X54478Y-78189D01*
X55410Y-79121D01*
X56343Y-79121D01*
X57275Y-78189D01*
X57275Y-75393D01*
X56383Y-65316D02*
X61976Y-65316D01*
X56383Y-65316D02*
X56383Y-62519D01*
X57315Y-61587D01*
X59180Y-61587D01*
X60112Y-62519D01*
X60112Y-65316D01*
X60112Y-63451D02*
X61976Y-61587D01*
X58248Y-59703D02*
X56383Y-57838D01*
X61976Y-57838D01*
X61976Y-55974D02*
X61976Y-59703D01*
X56383Y-54089D02*
X56383Y-50361D01*
X56383Y-54089D02*
X59180Y-54089D01*
X58248Y-52225D01*
X58248Y-51293D01*
X59180Y-50361D01*
X61044Y-50361D01*
X61976Y-51293D01*
X61976Y-53157D01*
X61044Y-54089D01*
X-204305Y33663D02*
X-205237Y32731D01*
X-205237Y30866D01*
X-204305Y29934D01*
X-200576Y29934D01*
X-199644Y30866D01*
X-199644Y32731D01*
X-200576Y33663D01*
X-203373Y35547D02*
X-205237Y37412D01*
X-199644Y37412D01*
X-199644Y39276D02*
X-199644Y35547D01*
X-204305Y41161D02*
X-205237Y42093D01*
X-205237Y43957D01*
X-204305Y44889D01*
X-203373Y44889D01*
X-202440Y43957D01*
X-202440Y43025D01*
X-202440Y43957D02*
X-201508Y44889D01*
X-200576Y44889D01*
X-199644Y43957D01*
X-199644Y42093D01*
X-200576Y41161D01*
X-205237Y54956D02*
X-204305Y55888D01*
X-205237Y54956D02*
X-205237Y53091D01*
X-204305Y52159D01*
X-200576Y52159D01*
X-199644Y53091D01*
X-199644Y54956D01*
X-200576Y55888D01*
X-203373Y57772D02*
X-205237Y59637D01*
X-199644Y59637D01*
X-199644Y61501D02*
X-199644Y57772D01*
X-205237Y63386D02*
X-205237Y67114D01*
X-205237Y63386D02*
X-202440Y63386D01*
X-203373Y65250D01*
X-203373Y66182D01*
X-202440Y67114D01*
X-200576Y67114D01*
X-199644Y66182D01*
X-199644Y64318D01*
X-200576Y63386D01*
X-194937Y113817D02*
X-195869Y114749D01*
X-197734Y114749D01*
X-198666Y113817D01*
X-198666Y110089D01*
X-197734Y109157D01*
X-195869Y109157D01*
X-194937Y110089D01*
X-193053Y112885D02*
X-191188Y114749D01*
X-191188Y109157D01*
X-189324Y109157D02*
X-193053Y109157D01*
X-185575Y113817D02*
X-183711Y114749D01*
X-185575Y113817D02*
X-187439Y111953D01*
X-187439Y110089D01*
X-186507Y109157D01*
X-184643Y109157D01*
X-183711Y110089D01*
X-183711Y111021D01*
X-184643Y111953D01*
X-187439Y111953D01*
D11*
X-172720Y130810D02*
X-157480Y130810D01*
X-157480Y190500D02*
X-172720Y190500D01*
D13*
X-169565Y187561D02*
X-169565Y181968D01*
X-165836Y181968D01*
X-161155Y181968D02*
X-161155Y187561D01*
X-163952Y184764D01*
X-160223Y184764D01*
D19*
X-175925Y76600D02*
X-175923Y76663D01*
X-175917Y76725D01*
X-175907Y76787D01*
X-175894Y76849D01*
X-175876Y76909D01*
X-175855Y76968D01*
X-175830Y77026D01*
X-175801Y77082D01*
X-175769Y77136D01*
X-175734Y77188D01*
X-175696Y77237D01*
X-175654Y77285D01*
X-175610Y77329D01*
X-175562Y77371D01*
X-175513Y77409D01*
X-175461Y77444D01*
X-175407Y77476D01*
X-175351Y77505D01*
X-175293Y77530D01*
X-175234Y77551D01*
X-175174Y77569D01*
X-175112Y77582D01*
X-175050Y77592D01*
X-174988Y77598D01*
X-174925Y77600D01*
X-174862Y77598D01*
X-174800Y77592D01*
X-174738Y77582D01*
X-174676Y77569D01*
X-174616Y77551D01*
X-174557Y77530D01*
X-174499Y77505D01*
X-174443Y77476D01*
X-174389Y77444D01*
X-174337Y77409D01*
X-174288Y77371D01*
X-174240Y77329D01*
X-174196Y77285D01*
X-174154Y77237D01*
X-174116Y77188D01*
X-174081Y77136D01*
X-174049Y77082D01*
X-174020Y77026D01*
X-173995Y76968D01*
X-173974Y76909D01*
X-173956Y76849D01*
X-173943Y76787D01*
X-173933Y76725D01*
X-173927Y76663D01*
X-173925Y76600D01*
X-173927Y76537D01*
X-173933Y76475D01*
X-173943Y76413D01*
X-173956Y76351D01*
X-173974Y76291D01*
X-173995Y76232D01*
X-174020Y76174D01*
X-174049Y76118D01*
X-174081Y76064D01*
X-174116Y76012D01*
X-174154Y75963D01*
X-174196Y75915D01*
X-174240Y75871D01*
X-174288Y75829D01*
X-174337Y75791D01*
X-174389Y75756D01*
X-174443Y75724D01*
X-174499Y75695D01*
X-174557Y75670D01*
X-174616Y75649D01*
X-174676Y75631D01*
X-174738Y75618D01*
X-174800Y75608D01*
X-174862Y75602D01*
X-174925Y75600D01*
X-174988Y75602D01*
X-175050Y75608D01*
X-175112Y75618D01*
X-175174Y75631D01*
X-175234Y75649D01*
X-175293Y75670D01*
X-175351Y75695D01*
X-175407Y75724D01*
X-175461Y75756D01*
X-175513Y75791D01*
X-175562Y75829D01*
X-175610Y75871D01*
X-175654Y75915D01*
X-175696Y75963D01*
X-175734Y76012D01*
X-175769Y76064D01*
X-175801Y76118D01*
X-175830Y76174D01*
X-175855Y76232D01*
X-175876Y76291D01*
X-175894Y76351D01*
X-175907Y76413D01*
X-175917Y76475D01*
X-175923Y76537D01*
X-175925Y76600D01*
D17*
X-177325Y93100D02*
X-177325Y110100D01*
X-146525Y110100D02*
X-146525Y93100D01*
D10*
X-176235Y98806D02*
X-182378Y98806D01*
X-176235Y98806D02*
X-175006Y100035D01*
X-175006Y102492D01*
X-176235Y103721D01*
X-182378Y103721D01*
X-182378Y106290D02*
X-182378Y111205D01*
X-181150Y111205D01*
X-176235Y106290D01*
X-175006Y106290D01*
D14*
X-116000Y254925D02*
X-46000Y254925D01*
X-116000Y254925D02*
X-116000Y316925D01*
X-116000Y324925D01*
X-46000Y324925D01*
X-46000Y316925D01*
X-46000Y254925D01*
X-46000Y316925D02*
X-116000Y316925D01*
D17*
X-61391Y251249D02*
X-60586Y250444D01*
X-59781Y250444D01*
X-58976Y251249D01*
X-58976Y255274D01*
X-59781Y255274D02*
X-58171Y255274D01*
X-55778Y253664D02*
X-54168Y255274D01*
X-54168Y250444D01*
X-55778Y250444D02*
X-52558Y250444D01*
D14*
X-20750Y254925D02*
X49250Y254925D01*
X-20750Y254925D02*
X-20750Y316925D01*
X-20750Y324925D01*
X49250Y324925D01*
X49250Y316925D01*
X49250Y254925D01*
X49250Y316925D02*
X-20750Y316925D01*
D17*
X33859Y251249D02*
X34664Y250444D01*
X35469Y250444D01*
X36274Y251249D01*
X36274Y255274D01*
X35469Y255274D02*
X37079Y255274D01*
X39472Y250444D02*
X42692Y250444D01*
X39472Y250444D02*
X42692Y253664D01*
X42692Y254469D01*
X41887Y255274D01*
X40277Y255274D01*
X39472Y254469D01*
D14*
X71325Y254925D02*
X141325Y254925D01*
X71325Y254925D02*
X71325Y316925D01*
X71325Y324925D01*
X141325Y324925D01*
X141325Y316925D01*
X141325Y254925D01*
X141325Y316925D02*
X71325Y316925D01*
D17*
X125934Y251249D02*
X126739Y250444D01*
X127544Y250444D01*
X128349Y251249D01*
X128349Y255274D01*
X127544Y255274D02*
X129154Y255274D01*
X131547Y254469D02*
X132352Y255274D01*
X133962Y255274D01*
X134767Y254469D01*
X134767Y253664D01*
X133962Y252859D01*
X133157Y252859D01*
X133962Y252859D02*
X134767Y252054D01*
X134767Y251249D01*
X133962Y250444D01*
X132352Y250444D01*
X131547Y251249D01*
D19*
X-137755Y-44150D02*
X-137753Y-44087D01*
X-137747Y-44025D01*
X-137737Y-43963D01*
X-137724Y-43901D01*
X-137706Y-43841D01*
X-137685Y-43782D01*
X-137660Y-43724D01*
X-137631Y-43668D01*
X-137599Y-43614D01*
X-137564Y-43562D01*
X-137526Y-43513D01*
X-137484Y-43465D01*
X-137440Y-43421D01*
X-137392Y-43379D01*
X-137343Y-43341D01*
X-137291Y-43306D01*
X-137237Y-43274D01*
X-137181Y-43245D01*
X-137123Y-43220D01*
X-137064Y-43199D01*
X-137004Y-43181D01*
X-136942Y-43168D01*
X-136880Y-43158D01*
X-136818Y-43152D01*
X-136755Y-43150D01*
X-136692Y-43152D01*
X-136630Y-43158D01*
X-136568Y-43168D01*
X-136506Y-43181D01*
X-136446Y-43199D01*
X-136387Y-43220D01*
X-136329Y-43245D01*
X-136273Y-43274D01*
X-136219Y-43306D01*
X-136167Y-43341D01*
X-136118Y-43379D01*
X-136070Y-43421D01*
X-136026Y-43465D01*
X-135984Y-43513D01*
X-135946Y-43562D01*
X-135911Y-43614D01*
X-135879Y-43668D01*
X-135850Y-43724D01*
X-135825Y-43782D01*
X-135804Y-43841D01*
X-135786Y-43901D01*
X-135773Y-43963D01*
X-135763Y-44025D01*
X-135757Y-44087D01*
X-135755Y-44150D01*
X-135757Y-44213D01*
X-135763Y-44275D01*
X-135773Y-44337D01*
X-135786Y-44399D01*
X-135804Y-44459D01*
X-135825Y-44518D01*
X-135850Y-44576D01*
X-135879Y-44632D01*
X-135911Y-44686D01*
X-135946Y-44738D01*
X-135984Y-44787D01*
X-136026Y-44835D01*
X-136070Y-44879D01*
X-136118Y-44921D01*
X-136167Y-44959D01*
X-136219Y-44994D01*
X-136273Y-45026D01*
X-136329Y-45055D01*
X-136387Y-45080D01*
X-136446Y-45101D01*
X-136506Y-45119D01*
X-136568Y-45132D01*
X-136630Y-45142D01*
X-136692Y-45148D01*
X-136755Y-45150D01*
X-136818Y-45148D01*
X-136880Y-45142D01*
X-136942Y-45132D01*
X-137004Y-45119D01*
X-137064Y-45101D01*
X-137123Y-45080D01*
X-137181Y-45055D01*
X-137237Y-45026D01*
X-137291Y-44994D01*
X-137343Y-44959D01*
X-137392Y-44921D01*
X-137440Y-44879D01*
X-137484Y-44835D01*
X-137526Y-44787D01*
X-137564Y-44738D01*
X-137599Y-44686D01*
X-137631Y-44632D01*
X-137660Y-44576D01*
X-137685Y-44518D01*
X-137706Y-44459D01*
X-137724Y-44399D01*
X-137737Y-44337D01*
X-137747Y-44275D01*
X-137753Y-44213D01*
X-137755Y-44150D01*
D17*
X-189125Y-19650D02*
X-189125Y-94650D01*
X-146125Y-39150D02*
X-146125Y-30150D01*
X-146125Y-75150D02*
X-146125Y-84150D01*
D13*
X-129545Y-22995D02*
X-128609Y-22059D01*
X-128609Y-21123D01*
X-129545Y-20187D01*
X-134225Y-20187D01*
X-134225Y-21123D02*
X-134225Y-19251D01*
X-134225Y-14553D02*
X-128609Y-14553D01*
X-131417Y-17361D02*
X-134225Y-14553D01*
X-131417Y-13617D02*
X-131417Y-17361D01*
D14*
X-183055Y-231620D02*
X-191595Y-231620D01*
X-191595Y-162080D02*
X-183055Y-162080D01*
X-201595Y-169850D02*
X-201595Y-223850D01*
X-173055Y-198120D02*
X-173055Y-180580D01*
D17*
X-167157Y-189401D02*
X-167962Y-190206D01*
X-167962Y-191816D01*
X-167157Y-192621D01*
X-166352Y-192621D01*
X-165547Y-191816D01*
X-165547Y-190206D01*
X-164742Y-189401D01*
X-163937Y-189401D01*
X-163132Y-190206D01*
X-163132Y-191816D01*
X-163937Y-192621D01*
X-167157Y-187008D02*
X-167962Y-186203D01*
X-167962Y-184592D01*
X-167157Y-183787D01*
X-166352Y-183787D01*
X-165547Y-184592D01*
X-165547Y-185398D01*
X-165547Y-184592D02*
X-164742Y-183787D01*
X-163937Y-183787D01*
X-163132Y-184592D01*
X-163132Y-186203D01*
X-163937Y-187008D01*
M02*
