G04 EAGLE Gerber RS-274X export*
G75*
%MOMM*%
%FSLAX34Y34*%
%LPD*%
%IN*%
%IPPOS*%
%AMOC8*
5,1,8,0,0,1.08239X$1,22.5*%
G01*
%ADD10C,0.254000*%


D10*
X-204787Y-302827D02*
X-204577Y-304458D01*
X-204226Y-306064D01*
X-203736Y-307633D01*
X-203112Y-309154D01*
X-202357Y-310614D01*
X-201478Y-312003D01*
X-200481Y-313310D01*
X-199373Y-314526D01*
X-198165Y-315640D01*
X-196863Y-316644D01*
X-195479Y-317532D01*
X-194023Y-318295D01*
X-192506Y-318929D01*
X-190940Y-319428D01*
X-189336Y-319788D01*
X-187707Y-320007D01*
X-186065Y-320084D01*
X-184422Y-320017D01*
X183107Y-320017D01*
X184996Y-319935D01*
X184996Y-319935D01*
X186871Y-319688D01*
X188718Y-319279D01*
X190522Y-318710D01*
X192269Y-317986D01*
X193947Y-317113D01*
X195542Y-316097D01*
X197042Y-314945D01*
X198437Y-313667D01*
X199715Y-312273D01*
X200866Y-310772D01*
X201882Y-309177D01*
X202756Y-307500D01*
X203480Y-305752D01*
X204048Y-303948D01*
X204458Y-302102D01*
X204705Y-300227D01*
X204787Y-298337D01*
X204787Y302827D01*
X204705Y304716D01*
X204705Y304716D01*
X204458Y306591D01*
X204049Y308438D01*
X203480Y310242D01*
X202756Y311989D01*
X201883Y313667D01*
X200867Y315262D01*
X199715Y316762D01*
X198437Y318157D01*
X197043Y319435D01*
X195542Y320586D01*
X193947Y321602D01*
X192270Y322476D01*
X190522Y323200D01*
X188718Y323768D01*
X186872Y324178D01*
X184997Y324425D01*
X183107Y324507D01*
X-183107Y324507D01*
X-184996Y324425D01*
X-186871Y324178D01*
X-188718Y323769D01*
X-190521Y323200D01*
X-192269Y322476D01*
X-193947Y321603D01*
X-195542Y320587D01*
X-197042Y319435D01*
X-198437Y318158D01*
X-199715Y316763D01*
X-200866Y315263D01*
X-201882Y313667D01*
X-202756Y311990D01*
X-203479Y310242D01*
X-204048Y308438D01*
X-204458Y306592D01*
X-204704Y304717D01*
X-204787Y302827D01*
X-204787Y-302827D01*
X-158425Y-93300D02*
X-158414Y-93544D01*
X-158382Y-93786D01*
X-158330Y-94025D01*
X-158256Y-94258D01*
X-158163Y-94483D01*
X-158050Y-94700D01*
X-157919Y-94906D01*
X-157770Y-95100D01*
X-157605Y-95280D01*
X-157425Y-95445D01*
X-157231Y-95594D01*
X-157025Y-95725D01*
X-156808Y-95838D01*
X-156583Y-95931D01*
X-156350Y-96005D01*
X-156111Y-96057D01*
X-155869Y-96089D01*
X-155625Y-96100D01*
X-145625Y-96100D01*
X-145381Y-96089D01*
X-145139Y-96057D01*
X-144900Y-96005D01*
X-144667Y-95931D01*
X-144442Y-95838D01*
X-144225Y-95725D01*
X-144019Y-95594D01*
X-143825Y-95445D01*
X-143645Y-95280D01*
X-143480Y-95100D01*
X-143331Y-94906D01*
X-143200Y-94700D01*
X-143087Y-94483D01*
X-142994Y-94258D01*
X-142920Y-94025D01*
X-142868Y-93786D01*
X-142836Y-93544D01*
X-142825Y-93300D01*
X-142836Y-93056D01*
X-142868Y-92814D01*
X-142920Y-92575D01*
X-142994Y-92342D01*
X-143087Y-92117D01*
X-143200Y-91900D01*
X-143331Y-91694D01*
X-143480Y-91500D01*
X-143645Y-91320D01*
X-143825Y-91155D01*
X-144019Y-91006D01*
X-144225Y-90875D01*
X-144442Y-90762D01*
X-144667Y-90669D01*
X-144900Y-90595D01*
X-145139Y-90543D01*
X-145381Y-90511D01*
X-145625Y-90500D01*
X-155625Y-90500D01*
X-155869Y-90511D01*
X-156111Y-90543D01*
X-156350Y-90595D01*
X-156583Y-90669D01*
X-156808Y-90762D01*
X-157025Y-90875D01*
X-157231Y-91006D01*
X-157425Y-91155D01*
X-157605Y-91320D01*
X-157770Y-91500D01*
X-157919Y-91694D01*
X-158050Y-91900D01*
X-158163Y-92117D01*
X-158256Y-92342D01*
X-158330Y-92575D01*
X-158382Y-92814D01*
X-158414Y-93056D01*
X-158425Y-93300D01*
X-158425Y-21000D02*
X-158414Y-21244D01*
X-158382Y-21486D01*
X-158330Y-21725D01*
X-158256Y-21958D01*
X-158163Y-22183D01*
X-158050Y-22400D01*
X-157919Y-22606D01*
X-157770Y-22800D01*
X-157605Y-22980D01*
X-157425Y-23145D01*
X-157231Y-23294D01*
X-157025Y-23425D01*
X-156808Y-23538D01*
X-156583Y-23631D01*
X-156350Y-23705D01*
X-156111Y-23757D01*
X-155869Y-23789D01*
X-155625Y-23800D01*
X-145625Y-23800D01*
X-145381Y-23789D01*
X-145139Y-23757D01*
X-144900Y-23705D01*
X-144667Y-23631D01*
X-144442Y-23538D01*
X-144225Y-23425D01*
X-144019Y-23294D01*
X-143825Y-23145D01*
X-143645Y-22980D01*
X-143480Y-22800D01*
X-143331Y-22606D01*
X-143200Y-22400D01*
X-143087Y-22183D01*
X-142994Y-21958D01*
X-142920Y-21725D01*
X-142868Y-21486D01*
X-142836Y-21244D01*
X-142825Y-21000D01*
X-142836Y-20756D01*
X-142868Y-20514D01*
X-142920Y-20275D01*
X-142994Y-20042D01*
X-143087Y-19817D01*
X-143200Y-19600D01*
X-143331Y-19394D01*
X-143480Y-19200D01*
X-143645Y-19020D01*
X-143825Y-18855D01*
X-144019Y-18706D01*
X-144225Y-18575D01*
X-144442Y-18462D01*
X-144667Y-18369D01*
X-144900Y-18295D01*
X-145139Y-18243D01*
X-145381Y-18211D01*
X-145625Y-18200D01*
X-155625Y-18200D01*
X-155869Y-18211D01*
X-156111Y-18243D01*
X-156350Y-18295D01*
X-156583Y-18369D01*
X-156808Y-18462D01*
X-157025Y-18575D01*
X-157231Y-18706D01*
X-157425Y-18855D01*
X-157605Y-19020D01*
X-157770Y-19200D01*
X-157919Y-19394D01*
X-158050Y-19600D01*
X-158163Y-19817D01*
X-158256Y-20042D01*
X-158330Y-20275D01*
X-158382Y-20514D01*
X-158414Y-20756D01*
X-158425Y-21000D01*
X-184225Y-89650D02*
X-184211Y-89964D01*
X-184170Y-90275D01*
X-184102Y-90582D01*
X-184008Y-90881D01*
X-183888Y-91171D01*
X-183743Y-91450D01*
X-183574Y-91715D01*
X-183383Y-91964D01*
X-183171Y-92196D01*
X-182939Y-92408D01*
X-182690Y-92599D01*
X-182425Y-92768D01*
X-182146Y-92913D01*
X-181856Y-93033D01*
X-181557Y-93127D01*
X-181250Y-93195D01*
X-180939Y-93236D01*
X-180625Y-93250D01*
X-168625Y-93250D01*
X-168311Y-93236D01*
X-168000Y-93195D01*
X-167693Y-93127D01*
X-167394Y-93033D01*
X-167104Y-92913D01*
X-166825Y-92768D01*
X-166560Y-92599D01*
X-166311Y-92408D01*
X-166079Y-92196D01*
X-165867Y-91964D01*
X-165676Y-91715D01*
X-165507Y-91450D01*
X-165362Y-91171D01*
X-165242Y-90881D01*
X-165148Y-90582D01*
X-165080Y-90275D01*
X-165039Y-89964D01*
X-165025Y-89650D01*
X-165043Y-89341D01*
X-165088Y-89034D01*
X-165159Y-88733D01*
X-165256Y-88439D01*
X-165379Y-88154D01*
X-165526Y-87882D01*
X-165696Y-87623D01*
X-165888Y-87380D01*
X-166100Y-87154D01*
X-166331Y-86948D01*
X-166580Y-86763D01*
X-166843Y-86601D01*
X-167120Y-86461D01*
X-167408Y-86347D01*
X-167705Y-86258D01*
X-168008Y-86195D01*
X-168315Y-86159D01*
X-168625Y-86150D01*
X-180625Y-86150D01*
X-180935Y-86159D01*
X-181242Y-86195D01*
X-181546Y-86258D01*
X-181842Y-86347D01*
X-182130Y-86461D01*
X-182407Y-86601D01*
X-182670Y-86763D01*
X-182919Y-86948D01*
X-183150Y-87154D01*
X-183362Y-87380D01*
X-183554Y-87623D01*
X-183724Y-87882D01*
X-183871Y-88154D01*
X-183994Y-88439D01*
X-184091Y-88733D01*
X-184162Y-89034D01*
X-184207Y-89341D01*
X-184225Y-89650D01*
X-184225Y-24650D02*
X-184207Y-24959D01*
X-184162Y-25266D01*
X-184091Y-25567D01*
X-183994Y-25861D01*
X-183871Y-26146D01*
X-183724Y-26418D01*
X-183554Y-26677D01*
X-183362Y-26920D01*
X-183150Y-27146D01*
X-182919Y-27352D01*
X-182670Y-27537D01*
X-182407Y-27699D01*
X-182130Y-27839D01*
X-181842Y-27953D01*
X-181546Y-28042D01*
X-181242Y-28105D01*
X-180935Y-28141D01*
X-180625Y-28150D01*
X-168625Y-28150D01*
X-168315Y-28141D01*
X-168008Y-28105D01*
X-167705Y-28042D01*
X-167408Y-27953D01*
X-167120Y-27839D01*
X-166843Y-27699D01*
X-166580Y-27537D01*
X-166331Y-27352D01*
X-166100Y-27146D01*
X-165888Y-26920D01*
X-165696Y-26677D01*
X-165526Y-26418D01*
X-165379Y-26146D01*
X-165256Y-25861D01*
X-165159Y-25567D01*
X-165088Y-25266D01*
X-165043Y-24959D01*
X-165025Y-24650D01*
X-165039Y-24336D01*
X-165080Y-24025D01*
X-165148Y-23718D01*
X-165242Y-23419D01*
X-165362Y-23129D01*
X-165507Y-22850D01*
X-165676Y-22585D01*
X-165867Y-22336D01*
X-166079Y-22104D01*
X-166311Y-21892D01*
X-166560Y-21701D01*
X-166825Y-21532D01*
X-167104Y-21387D01*
X-167394Y-21267D01*
X-167693Y-21173D01*
X-168000Y-21105D01*
X-168311Y-21064D01*
X-168625Y-21050D01*
X-180625Y-21050D01*
X-180939Y-21064D01*
X-181250Y-21105D01*
X-181557Y-21173D01*
X-181856Y-21267D01*
X-182146Y-21387D01*
X-182425Y-21532D01*
X-182690Y-21701D01*
X-182939Y-21892D01*
X-183171Y-22104D01*
X-183383Y-22336D01*
X-183574Y-22585D01*
X-183743Y-22850D01*
X-183888Y-23129D01*
X-184008Y-23419D01*
X-184102Y-23718D01*
X-184170Y-24025D01*
X-184211Y-24336D01*
X-184225Y-24650D01*
X191562Y293791D02*
X191562Y294899D01*
X191483Y296003D01*
X191325Y297099D01*
X191090Y298181D01*
X190778Y299243D01*
X190391Y300280D01*
X189931Y301288D01*
X189401Y302259D01*
X188802Y303191D01*
X188139Y304077D01*
X187414Y304914D01*
X186631Y305697D01*
X185794Y306422D01*
X184908Y307085D01*
X183976Y307684D01*
X183005Y308214D01*
X181997Y308674D01*
X180960Y309061D01*
X179898Y309373D01*
X178816Y309608D01*
X177720Y309766D01*
X176616Y309845D01*
X175508Y309845D01*
X174404Y309766D01*
X173308Y309608D01*
X172226Y309373D01*
X171164Y309061D01*
X170127Y308674D01*
X169120Y308214D01*
X168148Y307684D01*
X167216Y307085D01*
X166330Y306422D01*
X165493Y305697D01*
X164710Y304914D01*
X163985Y304077D01*
X163322Y303191D01*
X162723Y302259D01*
X162193Y301288D01*
X161733Y300280D01*
X161346Y299243D01*
X161034Y298181D01*
X160799Y297099D01*
X160641Y296003D01*
X160562Y294899D01*
X160562Y293791D01*
X160641Y292687D01*
X160799Y291591D01*
X161034Y290509D01*
X161346Y289447D01*
X161733Y288410D01*
X162193Y287403D01*
X162723Y286431D01*
X163322Y285499D01*
X163985Y284613D01*
X164710Y283776D01*
X165493Y282993D01*
X166330Y282268D01*
X167216Y281605D01*
X168148Y281006D01*
X169120Y280476D01*
X170127Y280016D01*
X171164Y279629D01*
X172226Y279317D01*
X173308Y279082D01*
X174404Y278924D01*
X175508Y278845D01*
X176616Y278845D01*
X177720Y278924D01*
X178816Y279082D01*
X179898Y279317D01*
X180960Y279629D01*
X181997Y280016D01*
X183005Y280476D01*
X183976Y281006D01*
X184908Y281605D01*
X185794Y282268D01*
X186631Y282993D01*
X187414Y283776D01*
X188139Y284613D01*
X188802Y285499D01*
X189401Y286431D01*
X189931Y287403D01*
X190391Y288410D01*
X190778Y289447D01*
X191090Y290509D01*
X191325Y291591D01*
X191483Y292687D01*
X191562Y293791D01*
X-160863Y-290409D02*
X-160863Y-289301D01*
X-160942Y-288197D01*
X-161100Y-287101D01*
X-161335Y-286019D01*
X-161647Y-284957D01*
X-162034Y-283920D01*
X-162494Y-282913D01*
X-163024Y-281941D01*
X-163623Y-281009D01*
X-164286Y-280123D01*
X-165011Y-279286D01*
X-165794Y-278503D01*
X-166631Y-277778D01*
X-167517Y-277115D01*
X-168449Y-276516D01*
X-169421Y-275986D01*
X-170428Y-275526D01*
X-171465Y-275139D01*
X-172527Y-274827D01*
X-173609Y-274592D01*
X-174705Y-274434D01*
X-175809Y-274355D01*
X-176917Y-274355D01*
X-178021Y-274434D01*
X-179117Y-274592D01*
X-180199Y-274827D01*
X-181261Y-275139D01*
X-182298Y-275526D01*
X-183306Y-275986D01*
X-184277Y-276516D01*
X-185209Y-277115D01*
X-186095Y-277778D01*
X-186932Y-278503D01*
X-187715Y-279286D01*
X-188440Y-280123D01*
X-189103Y-281009D01*
X-189702Y-281941D01*
X-190232Y-282913D01*
X-190692Y-283920D01*
X-191079Y-284957D01*
X-191391Y-286019D01*
X-191626Y-287101D01*
X-191784Y-288197D01*
X-191863Y-289301D01*
X-191863Y-290409D01*
X-191784Y-291513D01*
X-191626Y-292609D01*
X-191391Y-293691D01*
X-191079Y-294753D01*
X-190692Y-295790D01*
X-190232Y-296798D01*
X-189702Y-297769D01*
X-189103Y-298701D01*
X-188440Y-299587D01*
X-187715Y-300424D01*
X-186932Y-301207D01*
X-186095Y-301932D01*
X-185209Y-302595D01*
X-184277Y-303194D01*
X-183306Y-303724D01*
X-182298Y-304184D01*
X-181261Y-304571D01*
X-180199Y-304883D01*
X-179117Y-305118D01*
X-178021Y-305276D01*
X-176917Y-305355D01*
X-175809Y-305355D01*
X-174705Y-305276D01*
X-173609Y-305118D01*
X-172527Y-304883D01*
X-171465Y-304571D01*
X-170428Y-304184D01*
X-169421Y-303724D01*
X-168449Y-303194D01*
X-167517Y-302595D01*
X-166631Y-301932D01*
X-165794Y-301207D01*
X-165011Y-300424D01*
X-164286Y-299587D01*
X-163623Y-298701D01*
X-163024Y-297769D01*
X-162494Y-296798D01*
X-162034Y-295790D01*
X-161647Y-294753D01*
X-161335Y-293691D01*
X-161100Y-292609D01*
X-160942Y-291513D01*
X-160863Y-290409D01*
X-160863Y293791D02*
X-160863Y294899D01*
X-160942Y296003D01*
X-161100Y297099D01*
X-161335Y298181D01*
X-161647Y299243D01*
X-162034Y300280D01*
X-162494Y301288D01*
X-163024Y302259D01*
X-163623Y303191D01*
X-164286Y304077D01*
X-165011Y304914D01*
X-165794Y305697D01*
X-166631Y306422D01*
X-167517Y307085D01*
X-168449Y307684D01*
X-169421Y308214D01*
X-170428Y308674D01*
X-171465Y309061D01*
X-172527Y309373D01*
X-173609Y309608D01*
X-174705Y309766D01*
X-175809Y309845D01*
X-176917Y309845D01*
X-178021Y309766D01*
X-179117Y309608D01*
X-180199Y309373D01*
X-181261Y309061D01*
X-182298Y308674D01*
X-183306Y308214D01*
X-184277Y307684D01*
X-185209Y307085D01*
X-186095Y306422D01*
X-186932Y305697D01*
X-187715Y304914D01*
X-188440Y304077D01*
X-189103Y303191D01*
X-189702Y302259D01*
X-190232Y301288D01*
X-190692Y300280D01*
X-191079Y299243D01*
X-191391Y298181D01*
X-191626Y297099D01*
X-191784Y296003D01*
X-191863Y294899D01*
X-191863Y293791D01*
X-191784Y292687D01*
X-191626Y291591D01*
X-191391Y290509D01*
X-191079Y289447D01*
X-190692Y288410D01*
X-190232Y287403D01*
X-189702Y286431D01*
X-189103Y285499D01*
X-188440Y284613D01*
X-187715Y283776D01*
X-186932Y282993D01*
X-186095Y282268D01*
X-185209Y281605D01*
X-184277Y281006D01*
X-183306Y280476D01*
X-182298Y280016D01*
X-181261Y279629D01*
X-180199Y279317D01*
X-179117Y279082D01*
X-178021Y278924D01*
X-176917Y278845D01*
X-175809Y278845D01*
X-174705Y278924D01*
X-173609Y279082D01*
X-172527Y279317D01*
X-171465Y279629D01*
X-170428Y280016D01*
X-169421Y280476D01*
X-168449Y281006D01*
X-167517Y281605D01*
X-166631Y282268D01*
X-165794Y282993D01*
X-165011Y283776D01*
X-164286Y284613D01*
X-163623Y285499D01*
X-163024Y286431D01*
X-162494Y287403D01*
X-162034Y288410D01*
X-161647Y289447D01*
X-161335Y290509D01*
X-161100Y291591D01*
X-160942Y292687D01*
X-160863Y293791D01*
X191562Y-290409D02*
X191562Y-289301D01*
X191483Y-288197D01*
X191325Y-287101D01*
X191090Y-286019D01*
X190778Y-284957D01*
X190391Y-283920D01*
X189931Y-282913D01*
X189401Y-281941D01*
X188802Y-281009D01*
X188139Y-280123D01*
X187414Y-279286D01*
X186631Y-278503D01*
X185794Y-277778D01*
X184908Y-277115D01*
X183976Y-276516D01*
X183005Y-275986D01*
X181997Y-275526D01*
X180960Y-275139D01*
X179898Y-274827D01*
X178816Y-274592D01*
X177720Y-274434D01*
X176616Y-274355D01*
X175508Y-274355D01*
X174404Y-274434D01*
X173308Y-274592D01*
X172226Y-274827D01*
X171164Y-275139D01*
X170127Y-275526D01*
X169120Y-275986D01*
X168148Y-276516D01*
X167216Y-277115D01*
X166330Y-277778D01*
X165493Y-278503D01*
X164710Y-279286D01*
X163985Y-280123D01*
X163322Y-281009D01*
X162723Y-281941D01*
X162193Y-282913D01*
X161733Y-283920D01*
X161346Y-284957D01*
X161034Y-286019D01*
X160799Y-287101D01*
X160641Y-288197D01*
X160562Y-289301D01*
X160562Y-290409D01*
X160641Y-291513D01*
X160799Y-292609D01*
X161034Y-293691D01*
X161346Y-294753D01*
X161733Y-295790D01*
X162193Y-296798D01*
X162723Y-297769D01*
X163322Y-298701D01*
X163985Y-299587D01*
X164710Y-300424D01*
X165493Y-301207D01*
X166330Y-301932D01*
X167216Y-302595D01*
X168148Y-303194D01*
X169120Y-303724D01*
X170127Y-304184D01*
X171164Y-304571D01*
X172226Y-304883D01*
X173308Y-305118D01*
X174404Y-305276D01*
X175508Y-305355D01*
X176616Y-305355D01*
X177720Y-305276D01*
X178816Y-305118D01*
X179898Y-304883D01*
X180960Y-304571D01*
X181997Y-304184D01*
X183005Y-303724D01*
X183976Y-303194D01*
X184908Y-302595D01*
X185794Y-301932D01*
X186631Y-301207D01*
X187414Y-300424D01*
X188139Y-299587D01*
X188802Y-298701D01*
X189401Y-297769D01*
X189931Y-296798D01*
X190391Y-295790D01*
X190778Y-294753D01*
X191090Y-293691D01*
X191325Y-292609D01*
X191483Y-291513D01*
X191562Y-290409D01*
X-187030Y-207350D02*
X-186445Y-207427D01*
X-185875Y-207580D01*
X-185330Y-207805D01*
X-184820Y-208100D01*
X-184352Y-208459D01*
X-183934Y-208877D01*
X-183575Y-209345D01*
X-183280Y-209855D01*
X-183055Y-210400D01*
X-182902Y-210970D01*
X-182825Y-211555D01*
X-182825Y-212145D01*
X-182902Y-212730D01*
X-183055Y-213300D01*
X-183280Y-213845D01*
X-183575Y-214355D01*
X-183934Y-214823D01*
X-184352Y-215241D01*
X-184820Y-215600D01*
X-185330Y-215895D01*
X-185875Y-216120D01*
X-186445Y-216273D01*
X-187030Y-216350D01*
X-187620Y-216350D01*
X-188205Y-216273D01*
X-188775Y-216120D01*
X-189320Y-215895D01*
X-189830Y-215600D01*
X-190298Y-215241D01*
X-190716Y-214823D01*
X-191075Y-214355D01*
X-191370Y-213845D01*
X-191595Y-213300D01*
X-191748Y-212730D01*
X-191825Y-212145D01*
X-191825Y-211555D01*
X-191748Y-210970D01*
X-191595Y-210400D01*
X-191370Y-209855D01*
X-191075Y-209345D01*
X-190716Y-208877D01*
X-190298Y-208459D01*
X-189830Y-208100D01*
X-189320Y-207805D01*
X-188775Y-207580D01*
X-188205Y-207427D01*
X-187620Y-207350D01*
X-187030Y-207350D01*
X-187030Y-177350D02*
X-186445Y-177427D01*
X-185875Y-177580D01*
X-185330Y-177805D01*
X-184820Y-178100D01*
X-184352Y-178459D01*
X-183934Y-178877D01*
X-183575Y-179345D01*
X-183280Y-179855D01*
X-183055Y-180400D01*
X-182902Y-180970D01*
X-182825Y-181555D01*
X-182825Y-182145D01*
X-182902Y-182730D01*
X-183055Y-183300D01*
X-183280Y-183845D01*
X-183575Y-184355D01*
X-183934Y-184823D01*
X-184352Y-185241D01*
X-184820Y-185600D01*
X-185330Y-185895D01*
X-185875Y-186120D01*
X-186445Y-186273D01*
X-187030Y-186350D01*
X-187620Y-186350D01*
X-188205Y-186273D01*
X-188775Y-186120D01*
X-189320Y-185895D01*
X-189830Y-185600D01*
X-190298Y-185241D01*
X-190716Y-184823D01*
X-191075Y-184355D01*
X-191370Y-183845D01*
X-191595Y-183300D01*
X-191748Y-182730D01*
X-191825Y-182145D01*
X-191825Y-181555D01*
X-191748Y-180970D01*
X-191595Y-180400D01*
X-191370Y-179855D01*
X-191075Y-179345D01*
X-190716Y-178877D01*
X-190298Y-178459D01*
X-189830Y-178100D01*
X-189320Y-177805D01*
X-188775Y-177580D01*
X-188205Y-177427D01*
X-187620Y-177350D01*
X-187030Y-177350D01*
M02*
