G04 EAGLE Gerber RS-274X export*
G75*
%MOMM*%
%FSLAX34Y34*%
%LPD*%
%INSilkscreen Bottom*%
%IPPOS*%
%AMOC8*
5,1,8,0,0,1.08239X$1,22.5*%
G01*
%ADD10C,0.152400*%


D10*
X76119Y253492D02*
X81542Y253492D01*
X81542Y269762D01*
X76119Y269762D01*
X70628Y269762D02*
X70628Y253492D01*
X62493Y253492D01*
X59781Y256204D01*
X59781Y261627D01*
X62493Y264339D01*
X70628Y264339D01*
X54256Y264339D02*
X51545Y264339D01*
X51545Y253492D01*
X54256Y253492D02*
X48833Y253492D01*
X51545Y269762D02*
X51545Y272474D01*
X43342Y269762D02*
X43342Y253492D01*
X43342Y258915D02*
X35207Y253492D01*
X43342Y258915D02*
X35207Y264339D01*
X26987Y253492D02*
X21564Y253492D01*
X26987Y253492D02*
X29699Y256204D01*
X29699Y261627D01*
X26987Y264339D01*
X21564Y264339D01*
X18853Y261627D01*
X18853Y258915D01*
X29699Y258915D01*
X13328Y253492D02*
X7904Y253492D01*
X7904Y269762D01*
X13328Y269762D01*
X2413Y253492D02*
X-5722Y253492D01*
X-8433Y256204D01*
X-5722Y258915D01*
X-298Y258915D01*
X2413Y261627D01*
X-298Y264339D01*
X-8433Y264339D01*
X-13958Y264339D02*
X-13958Y256204D01*
X-16670Y253492D01*
X-19382Y256204D01*
X-22093Y253492D01*
X-24805Y256204D01*
X-24805Y264339D01*
X-33042Y264339D02*
X-38465Y264339D01*
X-41177Y261627D01*
X-41177Y253492D01*
X-33042Y253492D01*
X-30330Y256204D01*
X-33042Y258915D01*
X-41177Y258915D01*
X-46702Y253492D02*
X-46702Y264339D01*
X-52125Y264339D02*
X-46702Y258915D01*
X-52125Y264339D02*
X-54836Y264339D01*
X-60345Y264339D02*
X-60345Y253492D01*
X-60345Y264339D02*
X-63056Y264339D01*
X-65768Y261627D01*
X-65768Y253492D01*
X-65768Y261627D02*
X-68479Y264339D01*
X-71191Y261627D01*
X-71191Y253492D01*
X108828Y243092D02*
X108828Y232245D01*
X103405Y226822D01*
X97982Y232245D01*
X97982Y243092D01*
X92457Y240380D02*
X89745Y243092D01*
X84322Y243092D01*
X81610Y240380D01*
X81610Y237669D01*
X84322Y234957D01*
X87034Y234957D01*
X84322Y234957D02*
X81610Y232245D01*
X81610Y229534D01*
X84322Y226822D01*
X89745Y226822D01*
X92457Y229534D01*
X59714Y237669D02*
X54290Y243092D01*
X54290Y226822D01*
X48867Y226822D02*
X59714Y226822D01*
X43342Y237669D02*
X37919Y243092D01*
X37919Y226822D01*
X43342Y226822D02*
X32496Y226822D01*
X26971Y226822D02*
X16124Y243092D01*
X10599Y240380D02*
X10599Y229534D01*
X10599Y240380D02*
X7887Y243092D01*
X2464Y243092D01*
X-248Y240380D01*
X-248Y229534D01*
X2464Y226822D01*
X7887Y226822D01*
X10599Y229534D01*
X-248Y240380D01*
X-13908Y243092D02*
X-13908Y226822D01*
X-5773Y234957D02*
X-13908Y243092D01*
X-16619Y234957D02*
X-5773Y234957D01*
X-22144Y226822D02*
X-32991Y243092D01*
X-38516Y226822D02*
X-49362Y226822D01*
X-38516Y226822D02*
X-49362Y237669D01*
X-49362Y240380D01*
X-46651Y243092D01*
X-41227Y243092D01*
X-38516Y240380D01*
X-54887Y240380D02*
X-54887Y229534D01*
X-54887Y240380D02*
X-57599Y243092D01*
X-63022Y243092D01*
X-65734Y240380D01*
X-65734Y229534D01*
X-63022Y226822D01*
X-57599Y226822D01*
X-54887Y229534D01*
X-65734Y240380D01*
X-71259Y226822D02*
X-82105Y226822D01*
X-71259Y226822D02*
X-82105Y237669D01*
X-82105Y240380D01*
X-79394Y243092D01*
X-73970Y243092D01*
X-71259Y240380D01*
X-87630Y240380D02*
X-87630Y229534D01*
X-87630Y240380D02*
X-90342Y243092D01*
X-95765Y243092D01*
X-98477Y240380D01*
X-98477Y229534D01*
X-95765Y226822D01*
X-90342Y226822D01*
X-87630Y229534D01*
X-98477Y240380D01*
X73407Y200152D02*
X81542Y200152D01*
X73407Y200152D02*
X70696Y202864D01*
X73407Y205575D01*
X78831Y205575D01*
X81542Y208287D01*
X78831Y210999D01*
X70696Y210999D01*
X65171Y210999D02*
X65171Y202864D01*
X62459Y200152D01*
X59748Y202864D01*
X57036Y200152D01*
X54324Y202864D01*
X54324Y210999D01*
X46088Y210999D02*
X40664Y210999D01*
X37953Y208287D01*
X37953Y200152D01*
X46088Y200152D01*
X48799Y202864D01*
X46088Y205575D01*
X37953Y205575D01*
X32428Y200152D02*
X32428Y210999D01*
X32428Y205575D02*
X27004Y210999D01*
X24293Y210999D01*
X18785Y210999D02*
X18785Y200152D01*
X18785Y210999D02*
X16073Y210999D01*
X13361Y208287D01*
X13361Y200152D01*
X13361Y208287D02*
X10650Y210999D01*
X7938Y208287D01*
X7938Y200152D01*
X2413Y200152D02*
X-5722Y200152D01*
X-8433Y202864D01*
X-5722Y205575D01*
X-298Y205575D01*
X2413Y208287D01*
X-298Y210999D01*
X-8433Y210999D01*
X-13958Y202864D02*
X-13958Y200152D01*
X-13958Y202864D02*
X-16670Y202864D01*
X-16670Y200152D01*
X-13958Y200152D01*
X-24856Y210999D02*
X-32991Y210999D01*
X-24856Y210999D02*
X-22144Y208287D01*
X-22144Y202864D01*
X-24856Y200152D01*
X-32991Y200152D01*
X-38516Y210999D02*
X-41227Y210999D01*
X-41227Y200152D01*
X-38516Y200152D02*
X-43939Y200152D01*
X-41227Y216422D02*
X-41227Y219134D01*
X-52142Y213710D02*
X-52142Y202864D01*
X-54853Y200152D01*
X-54853Y210999D02*
X-49430Y210999D01*
X-60345Y210999D02*
X-60345Y202864D01*
X-63056Y200152D01*
X-71191Y200152D01*
X-71191Y197440D02*
X-71191Y210999D01*
X-71191Y197440D02*
X-68479Y194729D01*
X-65768Y194729D01*
M02*
