G04 EAGLE Gerber RS-274X export*
G75*
%MOMM*%
%FSLAX34Y34*%
%LPD*%
%INSolderpaste Top*%
%IPPOS*%
%AMOC8*
5,1,8,0,0,1.08239X$1,22.5*%
G01*
%ADD10R,1.100000X1.000000*%
%ADD11R,0.800000X0.800000*%
%ADD12R,0.550000X1.200000*%
%ADD13R,1.600000X1.800000*%
%ADD14R,2.500000X6.000000*%
%ADD15R,1.270000X1.470000*%
%ADD16R,1.200000X0.800000*%
%ADD17R,1.000000X4.600000*%
%ADD18R,1.600000X3.400000*%
%ADD19R,0.762000X1.524000*%
%ADD20C,0.304800*%
%ADD21R,1.270000X0.508000*%
%ADD22R,0.800000X0.900000*%
%ADD23R,1.400000X1.600000*%
%ADD24C,0.300000*%
%ADD25R,1.000000X1.100000*%
%ADD26R,0.800000X1.200000*%
%ADD27C,0.122500*%
%ADD28R,1.350000X0.400000*%
%ADD29R,1.900000X1.900000*%
%ADD30R,1.500000X0.700000*%
%ADD31R,0.600000X1.000000*%
%ADD32R,0.800000X1.000000*%


D10*
X-72127Y-52502D03*
X-55127Y-52502D03*
D11*
X-52952Y-28346D03*
X-67952Y-28346D03*
D10*
X-18025Y-168275D03*
X-1025Y-168275D03*
D11*
X-5200Y-152400D03*
X-20200Y-152400D03*
D10*
X-4200Y-133350D03*
X-21200Y-133350D03*
D11*
X-43300Y-133350D03*
X-58300Y-133350D03*
D12*
X-50825Y47926D03*
X-60325Y47926D03*
X-69825Y47926D03*
X-69825Y21924D03*
X-50825Y21924D03*
D13*
X-62200Y177800D03*
X-90200Y177800D03*
X-67975Y-6350D03*
X-39975Y-6350D03*
D14*
X-54450Y131925D03*
X-97450Y131925D03*
D15*
X-51525Y76200D03*
X-94525Y76200D03*
D16*
X-95250Y29100D03*
X-95250Y47100D03*
D17*
X60800Y-245575D03*
X40800Y-245575D03*
D18*
X84800Y-297575D03*
X16800Y-297575D03*
D19*
X104775Y-272415D03*
X104775Y-216535D03*
X142875Y-272415D03*
X142875Y-216535D03*
D10*
X39125Y-193675D03*
X56125Y-193675D03*
D20*
X130905Y-136779D03*
X139033Y-136779D03*
X123031Y-136779D03*
X114903Y-136779D03*
X107029Y-136779D03*
X98901Y-136779D03*
X91027Y-136779D03*
X82899Y-136779D03*
X139033Y-144653D03*
X130905Y-144653D03*
X123031Y-144653D03*
X114903Y-144653D03*
X107029Y-144653D03*
X98901Y-144653D03*
X91027Y-144653D03*
X82899Y-144653D03*
X130905Y-152781D03*
X139033Y-152781D03*
X123031Y-152781D03*
X114903Y-152781D03*
X107029Y-152781D03*
X98901Y-152781D03*
X91027Y-152781D03*
X82899Y-152781D03*
X139033Y-160655D03*
X130905Y-160655D03*
X123031Y-160655D03*
X114903Y-160655D03*
X107029Y-160655D03*
X98901Y-160655D03*
X91027Y-160655D03*
X82899Y-160655D03*
X139033Y-168783D03*
X130905Y-168783D03*
X123031Y-168783D03*
X114903Y-168783D03*
X107029Y-168783D03*
X98901Y-168783D03*
X91027Y-168783D03*
X82899Y-168783D03*
X130905Y-176657D03*
X139033Y-176657D03*
X123031Y-176657D03*
X114903Y-176657D03*
X107029Y-176657D03*
X98901Y-176657D03*
X91027Y-176657D03*
X82899Y-176657D03*
X130905Y-184785D03*
X139033Y-184785D03*
X123031Y-184785D03*
X114903Y-184785D03*
X107029Y-184785D03*
X98901Y-184785D03*
X91027Y-184785D03*
X82899Y-184785D03*
X130905Y-192659D03*
X139033Y-192659D03*
X123031Y-192659D03*
X114903Y-192659D03*
X107029Y-192659D03*
X98901Y-192659D03*
X91027Y-192659D03*
X82899Y-192659D03*
D12*
X34900Y47926D03*
X25400Y47926D03*
X15900Y47926D03*
X15900Y21924D03*
X34900Y21924D03*
D13*
X20350Y177800D03*
X-7650Y177800D03*
X29875Y0D03*
X1875Y0D03*
D14*
X31275Y131925D03*
X-11725Y131925D03*
D15*
X34200Y76200D03*
X-8800Y76200D03*
D16*
X-9525Y29100D03*
X-9525Y47100D03*
D12*
X126975Y47926D03*
X117475Y47926D03*
X107975Y47926D03*
X107975Y21924D03*
X126975Y21924D03*
D13*
X115600Y177800D03*
X87600Y177800D03*
X118775Y0D03*
X90775Y0D03*
D14*
X123350Y131925D03*
X80350Y131925D03*
D15*
X126275Y76200D03*
X83275Y76200D03*
D16*
X82550Y29100D03*
X82550Y47100D03*
D10*
X77225Y-104775D03*
X94225Y-104775D03*
D21*
X137795Y-47625D03*
X137795Y-34925D03*
X137795Y-22225D03*
X137795Y-60325D03*
X137795Y-73025D03*
X186055Y-73025D03*
X186055Y-60325D03*
X186055Y-47625D03*
X186055Y-34925D03*
X186055Y-22225D03*
D22*
X34925Y-128700D03*
X44425Y-149700D03*
X25425Y-149700D03*
D10*
X26425Y-168275D03*
X43425Y-168275D03*
X-30725Y-47625D03*
X-13725Y-47625D03*
X96275Y-25400D03*
X113275Y-25400D03*
D23*
X8225Y-50800D03*
X36225Y-50800D03*
D12*
X31725Y-79074D03*
X22225Y-79074D03*
X12725Y-79074D03*
X12725Y-105076D03*
X31725Y-105076D03*
D10*
X-112150Y-146050D03*
X-129150Y-146050D03*
X-18025Y-225425D03*
X-1025Y-225425D03*
D24*
X-97345Y-101925D02*
X-97345Y-94925D01*
X-97345Y-101925D02*
X-104345Y-101925D01*
X-104345Y-94925D01*
X-97345Y-94925D01*
X-97345Y-99075D02*
X-104345Y-99075D01*
X-104345Y-96225D02*
X-97345Y-96225D01*
X-79805Y-94925D02*
X-79805Y-101925D01*
X-86805Y-101925D01*
X-86805Y-94925D01*
X-79805Y-94925D01*
X-79805Y-99075D02*
X-86805Y-99075D01*
X-86805Y-96225D02*
X-79805Y-96225D01*
D10*
X-93100Y-120650D03*
X-110100Y-120650D03*
X-5325Y-196850D03*
X11675Y-196850D03*
D12*
X-130150Y-200326D03*
X-120650Y-200326D03*
X-111150Y-200326D03*
X-111150Y-174324D03*
X-130150Y-174324D03*
D25*
X-154940Y51508D03*
X-154940Y68508D03*
X-136525Y68825D03*
X-136525Y51825D03*
D15*
X-143600Y250825D03*
X-186600Y250825D03*
X-143600Y212725D03*
X-186600Y212725D03*
D24*
X81470Y-75875D02*
X81470Y-82875D01*
X81470Y-75875D02*
X88470Y-75875D01*
X88470Y-82875D01*
X81470Y-82875D01*
X81470Y-80025D02*
X88470Y-80025D01*
X88470Y-77175D02*
X81470Y-77175D01*
X63930Y-75875D02*
X63930Y-82875D01*
X63930Y-75875D02*
X70930Y-75875D01*
X70930Y-82875D01*
X63930Y-82875D01*
X63930Y-80025D02*
X70930Y-80025D01*
X70930Y-77175D02*
X63930Y-77175D01*
D10*
X70875Y-57150D03*
X87875Y-57150D03*
D26*
X-189975Y38100D03*
X-171975Y38100D03*
X-189975Y60325D03*
X-171975Y60325D03*
D16*
X-190500Y101075D03*
X-190500Y83075D03*
D14*
X-143350Y160500D03*
X-186350Y160500D03*
D27*
X-169837Y95788D02*
X-169837Y83612D01*
X-173513Y83612D01*
X-173513Y95788D01*
X-169837Y95788D01*
X-169837Y84776D02*
X-173513Y84776D01*
X-173513Y85940D02*
X-169837Y85940D01*
X-169837Y87104D02*
X-173513Y87104D01*
X-173513Y88268D02*
X-169837Y88268D01*
X-169837Y89432D02*
X-173513Y89432D01*
X-173513Y90596D02*
X-169837Y90596D01*
X-169837Y91760D02*
X-173513Y91760D01*
X-173513Y92924D02*
X-169837Y92924D01*
X-169837Y94088D02*
X-173513Y94088D01*
X-173513Y95252D02*
X-169837Y95252D01*
X-163337Y95788D02*
X-163337Y83612D01*
X-167013Y83612D01*
X-167013Y95788D01*
X-163337Y95788D01*
X-163337Y84776D02*
X-167013Y84776D01*
X-167013Y85940D02*
X-163337Y85940D01*
X-163337Y87104D02*
X-167013Y87104D01*
X-167013Y88268D02*
X-163337Y88268D01*
X-163337Y89432D02*
X-167013Y89432D01*
X-167013Y90596D02*
X-163337Y90596D01*
X-163337Y91760D02*
X-167013Y91760D01*
X-167013Y92924D02*
X-163337Y92924D01*
X-163337Y94088D02*
X-167013Y94088D01*
X-167013Y95252D02*
X-163337Y95252D01*
X-156837Y95788D02*
X-156837Y83612D01*
X-160513Y83612D01*
X-160513Y95788D01*
X-156837Y95788D01*
X-156837Y84776D02*
X-160513Y84776D01*
X-160513Y85940D02*
X-156837Y85940D01*
X-156837Y87104D02*
X-160513Y87104D01*
X-160513Y88268D02*
X-156837Y88268D01*
X-156837Y89432D02*
X-160513Y89432D01*
X-160513Y90596D02*
X-156837Y90596D01*
X-156837Y91760D02*
X-160513Y91760D01*
X-160513Y92924D02*
X-156837Y92924D01*
X-156837Y94088D02*
X-160513Y94088D01*
X-160513Y95252D02*
X-156837Y95252D01*
X-150337Y95788D02*
X-150337Y83612D01*
X-154013Y83612D01*
X-154013Y95788D01*
X-150337Y95788D01*
X-150337Y84776D02*
X-154013Y84776D01*
X-154013Y85940D02*
X-150337Y85940D01*
X-150337Y87104D02*
X-154013Y87104D01*
X-154013Y88268D02*
X-150337Y88268D01*
X-150337Y89432D02*
X-154013Y89432D01*
X-154013Y90596D02*
X-150337Y90596D01*
X-150337Y91760D02*
X-154013Y91760D01*
X-154013Y92924D02*
X-150337Y92924D01*
X-150337Y94088D02*
X-154013Y94088D01*
X-154013Y95252D02*
X-150337Y95252D01*
X-150337Y107412D02*
X-150337Y119588D01*
X-150337Y107412D02*
X-154013Y107412D01*
X-154013Y119588D01*
X-150337Y119588D01*
X-150337Y108576D02*
X-154013Y108576D01*
X-154013Y109740D02*
X-150337Y109740D01*
X-150337Y110904D02*
X-154013Y110904D01*
X-154013Y112068D02*
X-150337Y112068D01*
X-150337Y113232D02*
X-154013Y113232D01*
X-154013Y114396D02*
X-150337Y114396D01*
X-150337Y115560D02*
X-154013Y115560D01*
X-154013Y116724D02*
X-150337Y116724D01*
X-150337Y117888D02*
X-154013Y117888D01*
X-154013Y119052D02*
X-150337Y119052D01*
X-156837Y119588D02*
X-156837Y107412D01*
X-160513Y107412D01*
X-160513Y119588D01*
X-156837Y119588D01*
X-156837Y108576D02*
X-160513Y108576D01*
X-160513Y109740D02*
X-156837Y109740D01*
X-156837Y110904D02*
X-160513Y110904D01*
X-160513Y112068D02*
X-156837Y112068D01*
X-156837Y113232D02*
X-160513Y113232D01*
X-160513Y114396D02*
X-156837Y114396D01*
X-156837Y115560D02*
X-160513Y115560D01*
X-160513Y116724D02*
X-156837Y116724D01*
X-156837Y117888D02*
X-160513Y117888D01*
X-160513Y119052D02*
X-156837Y119052D01*
X-163337Y119588D02*
X-163337Y107412D01*
X-167013Y107412D01*
X-167013Y119588D01*
X-163337Y119588D01*
X-163337Y108576D02*
X-167013Y108576D01*
X-167013Y109740D02*
X-163337Y109740D01*
X-163337Y110904D02*
X-167013Y110904D01*
X-167013Y112068D02*
X-163337Y112068D01*
X-163337Y113232D02*
X-167013Y113232D01*
X-167013Y114396D02*
X-163337Y114396D01*
X-163337Y115560D02*
X-167013Y115560D01*
X-167013Y116724D02*
X-163337Y116724D01*
X-163337Y117888D02*
X-167013Y117888D01*
X-167013Y119052D02*
X-163337Y119052D01*
X-169837Y119588D02*
X-169837Y107412D01*
X-173513Y107412D01*
X-173513Y119588D01*
X-169837Y119588D01*
X-169837Y108576D02*
X-173513Y108576D01*
X-173513Y109740D02*
X-169837Y109740D01*
X-169837Y110904D02*
X-173513Y110904D01*
X-173513Y112068D02*
X-169837Y112068D01*
X-169837Y113232D02*
X-173513Y113232D01*
X-173513Y114396D02*
X-169837Y114396D01*
X-169837Y115560D02*
X-173513Y115560D01*
X-173513Y116724D02*
X-169837Y116724D01*
X-169837Y117888D02*
X-173513Y117888D01*
X-173513Y119052D02*
X-169837Y119052D01*
D28*
X-147875Y-70150D03*
D29*
X-174625Y-45150D03*
X-174625Y-69150D03*
D28*
X-147875Y-44150D03*
X-147875Y-50650D03*
X-147875Y-57150D03*
X-147875Y-63650D03*
D30*
X-169825Y-219350D03*
X-169825Y-204350D03*
X-169825Y-174350D03*
D31*
X-197325Y-233350D03*
D32*
X-176325Y-233350D03*
D31*
X-197325Y-160350D03*
D32*
X-176325Y-160350D03*
M02*
